<svg width="113" height="190" viewBox="0 0 113 190" fill="none" xmlns="http://www.w3.org/2000/svg">
  <g clip-path="url(#clip0_1214_11216)">
  <line y1="-0.25" x2="86.9305" y2="-0.25" transform="matrix(1 -9.05097e-08 -8.44411e-08 -1 -31.8828 109.518)" stroke="#2562FF" stroke-width="0.5"/>
  <line y1="-0.25" x2="80" y2="-0.25" transform="matrix(-4.22206e-08 -1 -1 4.52549e-08 26.0703 149.518)" stroke="#2562FF" stroke-width="0.5"/>
  <line y1="-0.25" x2="86.9305" y2="-0.25" transform="matrix(1 -9.05097e-08 -8.44411e-08 -1 26.0703 69.5176)" stroke="#2562FF" stroke-width="0.5"/>
  <line y1="-0.25" x2="80" y2="-0.25" transform="matrix(-4.22206e-08 -1 -1 4.52549e-08 84.0234 109.518)" stroke="#2562FF" stroke-width="0.5"/>
  <line y1="-0.25" x2="86.9305" y2="-0.25" transform="matrix(1 -9.05097e-08 -8.44411e-08 -1 -31.8828 29.5176)" stroke="#2562FF" stroke-width="0.5"/>
  <line y1="-0.25" x2="80" y2="-0.25" transform="matrix(-4.22206e-08 -1 -1 4.52549e-08 26.0703 69.5176)" stroke="#2562FF" stroke-width="0.5"/>
  <line y1="-0.25" x2="80" y2="-0.25" transform="matrix(-4.22206e-08 -1 -1 4.52549e-08 84.0234 29.5176)" stroke="#2562FF" stroke-width="0.5"/>
  </g>
  <defs>
  <clipPath id="clip0_1214_11216">
  <rect width="113" height="190" fill="white"/>
  </clipPath>
  </defs>
  </svg>
  
<?xml version="1.0" encoding="UTF-8"?>
<svg id="Layer_1" xmlns="http://www.w3.org/2000/svg" xmlns:xlink="http://www.w3.org/1999/xlink" version="1.1" viewBox="0 0 113 190">
  <!-- Generator: Adobe Illustrator 29.1.0, SVG Export Plug-In . SVG Version: 2.1.0 Build 142)  -->
  <defs>
    <style>
      .st0, .st1, .st2 {
        fill: none;
      }

      .st1 {
        stroke-miterlimit: 4;
        stroke-width: .5px;
      }

      .st1, .st2 {
        stroke: #b5a280;
      }

      .st2 {
        stroke-width: .5px;
      }

      .st3 {
        clip-path: url(#clippath);
      }
    </style>
    <clipPath id="clippath">
      <rect class="st0" width="113" height="190"/>
    </clipPath>
  </defs>
  <g class="st3">
    <g>
      <line class="st2" x1="-31.9" y1="109.8" x2="55" y2="109.8"/>
      <line class="st1" x1="26.3" y1="149.5" x2="26.3" y2="69.5"/>
      <line class="st2" x1="26.1" y1="69.8" x2="113" y2="69.8"/>
      <line class="st1" x1="84.3" y1="109.5" x2="84.3" y2="29.5"/>
      <line class="st2" x1="-31.9" y1="29.8" x2="55" y2="29.8"/>
      <line class="st1" x1="26.3" y1="69.5" x2="26.3" y2="-10.5"/>
      <line class="st1" x1="84.3" y1="29.5" x2="84.3" y2="-50.5"/>
    </g>
  </g>
</svg>
