
<svg width="193" height="158" viewBox="0 0 193 158" fill="none" xmlns="http://www.w3.org/2000/svg">
  <line x1="2.18557e-08" y1="39.8555" x2="90" y2="39.8555" stroke="#2562FF" stroke-width="0.5" />
  <line x1="60.25" y1="0.105469" x2="60.25" y2="80.1055" stroke="#2562FF" stroke-width="0.5" />
  <line x1="60" y1="79.8555" x2="150" y2="79.8555" stroke="#2562FF" stroke-width="0.5" />
  <line x1="120.25" y1="40.1055" x2="120.25" y2="120.105" stroke="#2562FF" stroke-width="0.5" />
  <line x1="2.18557e-08" y1="119.855" x2="90" y2="119.855" stroke="#2562FF" stroke-width="0.5" />
  <line x1="60.25" y1="80.1055" x2="60.25" y2="160.105" stroke="#2562FF" stroke-width="0.5" />
  <line x1="120.25" y1="120.105" x2="120.25" y2="200.105" stroke="#2562FF" stroke-width="0.5" />
  <line x1="143.203" y1="79.8555" x2="233.203" y2="79.8555" stroke="#2562FF" stroke-width="0.5" />
</svg>
  
<?xml version="1.0" encoding="UTF-8"?>
<svg id="Layer_1" xmlns="http://www.w3.org/2000/svg" version="1.1" viewBox="0 0 193 158">
  <!-- Generator: Adobe Illustrator 29.1.0, SVG Export Plug-In . SVG Version: 2.1.0 Build 142)  -->
  <defs>
    <style>
      .st0 {
        fill: none;
        stroke: #b5a280;
        stroke-width: .5px;
      }
    </style>
  </defs>
  <line class="st0" x1="0" y1="39.9" x2="90" y2="39.9"/>
  <line class="st0" x1="60.2" y1=".1" x2="60.2" y2="80.1"/>
  <line class="st0" x1="60" y1="79.9" x2="150" y2="79.9"/>
  <line class="st0" x1="120.2" y1="40.1" x2="120.2" y2="120.1"/>
  <line class="st0" x1="0" y1="119.9" x2="90" y2="119.9"/>
  <line class="st0" x1="60.2" y1="80.1" x2="60.2" y2="160.1"/>
  <line class="st0" x1="120.2" y1="120.1" x2="120.2" y2="200.1"/>
  <line class="st0" x1="143.2" y1="79.9" x2="233.2" y2="79.9"/>
</svg>
