<?xml version="1.0" encoding="UTF-8"?>
<svg id="Layer_1" xmlns="http://www.w3.org/2000/svg" xmlns:xlink="http://www.w3.org/1999/xlink" version="1.1" viewBox="0 0 193 230">
  <!-- Generator: Adobe Illustrator 29.1.0, SVG Export Plug-In . SVG Version: 2.1.0 Build 142)  -->
  <defs>
    <style>
      .st0, .st1, .st2 {
        fill: none;
      }

      .st1 {
        stroke-miterlimit: 4;
        stroke-width: .5px;
      }

      .st1, .st2 {
        stroke: #b5a280;
      }

      .st3 {
        opacity: .5;
      }

      .st2 {
        stroke-width: .5px;
      }

      .st4 {
        clip-path: url(#clippath);
      }
    </style>
    <clipPath id="clippath">
      <rect class="st0" width="193" height="230"/>
    </clipPath>
  </defs>
  <g class="st4">
    <g class="st3">
      <line class="st1" x1="172.8" y1="-50.5" x2="172.8" y2="29.5"/>
      <line class="st2" x1="233" y1="69.3" x2="143" y2="69.3"/>
      <line class="st1" x1="172.8" y1="29.5" x2="172.8" y2="109.5"/>
      <line class="st2" x1="233" y1="149.3" x2="143" y2="149.3"/>
      <line class="st1" x1="172.8" y1="109.5" x2="172.8" y2="189.5"/>
      <line class="st1" x1="89.5" y1="-50.5" x2="89.5" y2="29.5"/>
      <line class="st2" x1="89.8" y1="29.3" x2="-.2" y2="29.3"/>
      <line class="st1" x1="29.5" y1="-10.5" x2="29.5" y2="69.5"/>
      <line class="st2" x1="149.8" y1="69.3" x2="59.8" y2="69.3"/>
      <line class="st1" x1="89.5" y1="29.5" x2="89.5" y2="109.5"/>
      <line class="st2" x1="89.8" y1="109.3" x2="-.2" y2="109.3"/>
      <line class="st1" x1="29.5" y1="69.5" x2="29.5" y2="149.5"/>
      <line class="st2" x1="149.8" y1="149.3" x2="59.8" y2="149.3"/>
      <line class="st1" x1="89.5" y1="109.5" x2="89.5" y2="189.5"/>
      <line class="st2" x1="89.8" y1="189.3" x2="-.2" y2="189.3"/>
      <line class="st1" x1="29.5" y1="149.5" x2="29.5" y2="229.5"/>
    </g>
  </g>
</svg>
