
<svg width="167" height="156" viewBox="0 0 167 156" fill="none" xmlns="http://www.w3.org/2000/svg">
  <g opacity="0.25" clip-path="url(#clip0_119_1055)">
    <line x1="270.805" y1="72.2461" x2="166.676" y2="72.2461" stroke="#2562FF" />
    <line x1="104.633" y1="210.314" x2="104.633" y2="117.939" stroke="#2562FF" />
    <line x1="105.129" y1="118.439" x2="1.00027" y2="118.439" stroke="#2562FF" />
    <line x1="35.2109" y1="164.129" x2="35.2109" y2="71.753" stroke="#2562FF" />
    <line x1="174.551" y1="72.252" x2="70.4221" y2="72.2519" stroke="#2562FF" />
    <line x1="104.633" y1="117.941" x2="104.633" y2="25.5655" stroke="#2562FF" />
    <line x1="105.133" y1="26.0664" x2="1.00418" y2="26.0664" stroke="#2562FF" />
    <line x1="35.2109" y1="71.7559" x2="35.2109" y2="-20.6201" stroke="#2562FF" />
    <line x1="104.633" y1="25.5703" x2="104.633" y2="-66.8056" stroke="#2562FF" />
  </g>
  <defs>
    <clipPath id="clip0_119_1055">
      <rect width="167" height="156" fill="white" transform="matrix(-1 0 0 -1 167 156)" />
    </clipPath>
  </defs>
</svg>
  
<?xml version="1.0" encoding="UTF-8"?>
<svg id="Layer_1" xmlns="http://www.w3.org/2000/svg" xmlns:xlink="http://www.w3.org/1999/xlink" version="1.1" viewBox="0 0 167 156">
  <!-- Generator: Adobe Illustrator 29.1.0, SVG Export Plug-In . SVG Version: 2.1.0 Build 142)  -->
  <defs>
    <style>
      .st0, .st1 {
        fill: none;
      }

      .st1 {
        stroke: #b5a280;
      }

      .st2 {
        opacity: .2;
      }

      .st3 {
        clip-path: url(#clippath);
      }
    </style>
    <clipPath id="clippath">
      <rect class="st0" width="167" height="156"/>
    </clipPath>
  </defs>
  <g class="st3">
    <g class="st2">
      <line class="st1" x1="270.8" y1="72.2" x2="166.7" y2="72.2"/>
      <line class="st1" x1="104.6" y1="210.3" x2="104.6" y2="117.9"/>
      <line class="st1" x1="105.1" y1="118.4" x2="1" y2="118.4"/>
      <line class="st1" x1="35.2" y1="164.1" x2="35.2" y2="71.8"/>
      <line class="st1" x1="174.6" y1="72.3" x2="70.4" y2="72.3"/>
      <line class="st1" x1="104.6" y1="117.9" x2="104.6" y2="25.6"/>
      <line class="st1" x1="105.1" y1="26.1" x2="1" y2="26.1"/>
      <line class="st1" x1="35.2" y1="71.8" x2="35.2" y2="-20.6"/>
      <line class="st1" x1="104.6" y1="25.6" x2="104.6" y2="-66.8"/>
    </g>
  </g>
</svg>
