<svg width="189" height="228" viewBox="0 0 189 228" fill="none" xmlns="http://www.w3.org/2000/svg">
  <g opacity="0.2">
    <rect x="36.6985" y="-48.6965" width="61.867" height="61.867"
      transform="rotate(90 36.6985 -48.6965)" fill="white" stroke="#BCD4FF" stroke-width="0.661596" />
    <rect x="13.9602" y="39.9812" width="61.867" height="61.867"
      transform="rotate(90 13.9602 39.9812)" fill="white" stroke="#BCD4FF" stroke-width="0.661596" />
    <rect x="99.2258" y="13.8288" width="61.867" height="61.867"
      transform="rotate(90 99.2258 13.8288)" fill="white" stroke="#BCD4FF" stroke-width="0.661596" />
    <rect x="76.4876" y="102.509" width="61.867" height="61.867"
      transform="rotate(90 76.4876 102.509)" fill="white" stroke="#BCD4FF" stroke-width="0.661596" />
    <rect x="187.904" y="-12.3176" width="61.867" height="61.867"
      transform="rotate(90 187.904 -12.3176)" fill="white" stroke="#BCD4FF" stroke-width="0.661596" />
    <rect x="161.753" y="76.362" width="61.867" height="61.867"
      transform="rotate(90 161.753 76.362)" fill="white" stroke="#BCD4FF" stroke-width="0.661596" />
    <rect x="139.019" y="165.036" width="61.867" height="61.867"
      transform="rotate(90 139.019 165.036)" fill="white" stroke="#BCD4FF" stroke-width="0.661596" />
  </g>
</svg>

<?xml version="1.0" encoding="UTF-8"?>
<svg id="Layer_1" xmlns="http://www.w3.org/2000/svg" version="1.1" viewBox="0 0 189 228">
  <!-- Generator: Adobe Illustrator 29.1.0, SVG Export Plug-In . SVG Version: 2.1.0 Build 142)  -->
  <defs>
    <style>
      .st0 {
        opacity: .2;
      }

      .st1 {
        fill: #fff;
        stroke: #b5a280;
        stroke-width: .7px;
      }
    </style>
  </defs>
  <g class="st0">
    <rect class="st1" x="-25.2" y="-48.7" width="61.9" height="61.9"/>
    <rect class="st1" x="-47.9" y="40" width="61.9" height="61.9"/>
    <rect class="st1" x="37.4" y="13.8" width="61.9" height="61.9"/>
    <rect class="st1" x="14.6" y="102.5" width="61.9" height="61.9"/>
    <rect class="st1" x="126" y="-12.3" width="61.9" height="61.9"/>
    <rect class="st1" x="99.9" y="76.4" width="61.9" height="61.9"/>
    <rect class="st1" x="77.2" y="165" width="61.9" height="61.9"/>
  </g>
</svg>