<?xml version="1.0" encoding="UTF-8"?>
<svg id="Layer_1" xmlns="http://www.w3.org/2000/svg" xmlns:xlink="http://www.w3.org/1999/xlink" version="1.1" viewBox="0 0 1920 764">
  <!-- Generator: Adobe Illustrator 29.1.0, SVG Export Plug-In . SVG Version: 2.1.0 Build 142)  -->
  <defs>
    <style>
      .st0, .st1 {
        fill: none;
      }

      .st1 {
        stroke: #b5a280;
      }

      .st2 {
        opacity: .1;
      }

      .st3 {
        opacity: 0;
      }

      .st4 {
        clip-path: url(#clippath);
      }
    </style>
    <clipPath id="clippath">
      <rect class="st0" width="1920" height="764"/>
    </clipPath>
  </defs>
  <g class="st4">
    <g>
      <g class="st2">
        <line class="st1" x1="1546.5" y1="-181" x2="1546.5" y2="19"/>
        <line class="st1" x1="1546" y1="18.5" x2="1771" y2="18.5"/>
        <line class="st1" x1="1696.5" y1="-81" x2="1696.5" y2="119"/>
        <line class="st1" x1="1396" y1="118.5" x2="1621" y2="118.5"/>
        <line class="st1" x1="1546.5" y1="19" x2="1546.5" y2="219"/>
        <line class="st1" x1="1546" y1="218.5" x2="1771" y2="218.5"/>
        <line class="st1" x1="1696.5" y1="119" x2="1696.5" y2="319"/>
        <line class="st1" x1="1396" y1="318.5" x2="1621" y2="318.5"/>
        <line class="st1" x1="1546.5" y1="219" x2="1546.5" y2="419"/>
        <line class="st1" x1="1546" y1="418.5" x2="1771" y2="418.5"/>
        <line class="st1" x1="1696.5" y1="319" x2="1696.5" y2="519"/>
        <line class="st1" x1="1396" y1="518.5" x2="1621" y2="518.5"/>
        <line class="st1" x1="1546.5" y1="419" x2="1546.5" y2="619"/>
        <line class="st1" x1="1546" y1="618.5" x2="1771" y2="618.5"/>
        <line class="st1" x1="1696.5" y1="519" x2="1696.5" y2="719"/>
        <line class="st1" x1="1754" y1="18.5" x2="1979" y2="18.5"/>
        <line class="st1" x1="1904.5" y1="-81" x2="1904.5" y2="119"/>
        <line class="st1" x1="1904" y1="118.5" x2="2129" y2="118.5"/>
        <line class="st1" x1="1754" y1="218.5" x2="1979" y2="218.5"/>
        <line class="st1" x1="1904.5" y1="119" x2="1904.5" y2="319"/>
        <line class="st1" x1="1904" y1="318.5" x2="2129" y2="318.5"/>
        <line class="st1" x1="1754" y1="418.5" x2="1979" y2="418.5"/>
        <line class="st1" x1="1904.5" y1="319" x2="1904.5" y2="519"/>
        <line class="st1" x1="1904" y1="518.5" x2="2129" y2="518.5"/>
        <line class="st1" x1="1754" y1="618.5" x2="1979" y2="618.5"/>
        <line class="st1" x1="1904.5" y1="519" x2="1904.5" y2="719"/>
        <line class="st1" x1="1904" y1="718.5" x2="2129" y2="718.5"/>
      </g>
      <g class="st3">
        <line class="st1" x1="744.5" y1="-181" x2="744.5" y2="19"/>
        <line class="st1" x1="744" y1="18.5" x2="969" y2="18.5"/>
        <line class="st1" x1="894.5" y1="-81" x2="894.5" y2="119"/>
        <line class="st1" x1="594" y1="118.5" x2="819" y2="118.5"/>
        <line class="st1" x1="744.5" y1="19" x2="744.5" y2="219"/>
        <line class="st1" x1="744" y1="218.5" x2="969" y2="218.5"/>
        <line class="st1" x1="894.5" y1="119" x2="894.5" y2="319"/>
        <line class="st1" x1="594" y1="318.5" x2="819" y2="318.5"/>
        <line class="st1" x1="744.5" y1="219" x2="744.5" y2="419"/>
        <line class="st1" x1="744" y1="418.5" x2="969" y2="418.5"/>
        <line class="st1" x1="894.5" y1="319" x2="894.5" y2="519"/>
        <line class="st1" x1="594" y1="518.5" x2="819" y2="518.5"/>
        <line class="st1" x1="744.5" y1="419" x2="744.5" y2="619"/>
        <line class="st1" x1="744" y1="618.5" x2="969" y2="618.5"/>
        <line class="st1" x1="894.5" y1="519" x2="894.5" y2="719"/>
        <line class="st1" x1="952" y1="18.5" x2="1177" y2="18.5"/>
        <line class="st1" x1="1102.5" y1="-81" x2="1102.5" y2="119"/>
        <line class="st1" x1="1102" y1="118.5" x2="1327" y2="118.5"/>
        <line class="st1" x1="1252.5" y1="19" x2="1252.5" y2="219"/>
        <line class="st1" x1="952" y1="218.5" x2="1177" y2="218.5"/>
        <line class="st1" x1="1102.5" y1="119" x2="1102.5" y2="319"/>
        <line class="st1" x1="1102" y1="318.5" x2="1327" y2="318.5"/>
        <line class="st1" x1="1252.5" y1="219" x2="1252.5" y2="419"/>
        <line class="st1" x1="952" y1="418.5" x2="1177" y2="418.5"/>
        <line class="st1" x1="1102.5" y1="319" x2="1102.5" y2="519"/>
        <line class="st1" x1="1102" y1="518.5" x2="1327" y2="518.5"/>
        <line class="st1" x1="1252.5" y1="419" x2="1252.5" y2="619"/>
        <line class="st1" x1="952" y1="618.5" x2="1177" y2="618.5"/>
        <line class="st1" x1="1102.5" y1="519" x2="1102.5" y2="719"/>
        <line class="st1" x1="1102" y1="718.5" x2="1327" y2="718.5"/>
        <line class="st1" x1="1252.5" y1="619" x2="1252.5" y2="819"/>
      </g>
      <g class="st2">
        <line class="st1" x1="-16" y1="18.5" x2="209" y2="18.5"/>
        <line class="st1" x1="134.5" y1="-81" x2="134.5" y2="119"/>
        <line class="st1" x1="-166" y1="118.5" x2="59" y2="118.5"/>
        <line class="st1" x1="-16" y1="218.5" x2="209" y2="218.5"/>
        <line class="st1" x1="134.5" y1="119" x2="134.5" y2="319"/>
        <line class="st1" x1="-166" y1="318.5" x2="59" y2="318.5"/>
        <line class="st1" x1="-16" y1="418.5" x2="209" y2="418.5"/>
        <line class="st1" x1="134.5" y1="319" x2="134.5" y2="519"/>
        <line class="st1" x1="-166" y1="518.5" x2="59" y2="518.5"/>
        <line class="st1" x1="-16" y1="618.5" x2="209" y2="618.5"/>
        <line class="st1" x1="134.5" y1="519" x2="134.5" y2="719"/>
        <line class="st1" x1="192" y1="18.5" x2="417" y2="18.5"/>
        <line class="st1" x1="342.5" y1="-81" x2="342.5" y2="119"/>
        <line class="st1" x1="342" y1="118.5" x2="567" y2="118.5"/>
        <line class="st1" x1="492.5" y1="19" x2="492.5" y2="219"/>
        <line class="st1" x1="192" y1="218.5" x2="417" y2="218.5"/>
        <line class="st1" x1="342.5" y1="119" x2="342.5" y2="319"/>
        <line class="st1" x1="342" y1="318.5" x2="567" y2="318.5"/>
        <line class="st1" x1="492.5" y1="219" x2="492.5" y2="419"/>
        <line class="st1" x1="192" y1="418.5" x2="417" y2="418.5"/>
        <line class="st1" x1="342.5" y1="319" x2="342.5" y2="519"/>
        <line class="st1" x1="342" y1="518.5" x2="567" y2="518.5"/>
        <line class="st1" x1="492.5" y1="419" x2="492.5" y2="619"/>
        <line class="st1" x1="192" y1="618.5" x2="417" y2="618.5"/>
        <line class="st1" x1="342.5" y1="519" x2="342.5" y2="719"/>
        <line class="st1" x1="342" y1="718.5" x2="567" y2="718.5"/>
        <line class="st1" x1="492.5" y1="619" x2="492.5" y2="819"/>
      </g>
    </g>
  </g>
</svg>