<?xml version="1.0" encoding="UTF-8"?>
<svg id="Layer_1" xmlns="http://www.w3.org/2000/svg" version="1.1" viewBox="0 0 45 34">
  <!-- Generator: Adobe Illustrator 29.1.0, SVG Export Plug-In . SVG Version: 2.1.0 Build 142)  -->
  <defs>
    <style>
      .st0 {
        fill: #b5a280;
      }

      .st1 {
        opacity: .6;
      }
    </style>
  </defs>
  <g class="st1">
    <path class="st0" d="M44.9.8l-2.1,12.1c-.5,2.8-1.1,5.3-1.8,7.5-.8,2.3-2,4.5-3.5,6.6-1.5,2.1-3.6,4.2-6.2,6.3l-5-5.3c2.9-2.7,4.9-5.1,6-7.2,1-2.1,1.8-4.5,2.3-7.2l3.3,2.6h-11L29.3.8h15.5ZM19.5.8l-2.1,12.1c-.5,2.8-1.1,5.3-1.8,7.5-.8,2.3-2,4.5-3.5,6.6-1.5,2.1-3.6,4.2-6.2,6.3L.9,28.1c2.9-2.7,4.9-5.1,6-7.2,1-2.1,1.8-4.5,2.3-7.2l3.3,2.6H1.5L3.9.8h15.5Z"/>
  </g>
</svg>