<?xml version="1.0" encoding="UTF-8"?>
<svg id="Layer_1" xmlns="http://www.w3.org/2000/svg" version="1.1" viewBox="0 0 69 33">
  <!-- Generator: Adobe Illustrator 29.1.0, SVG Export Plug-In . SVG Version: 2.1.0 Build 142)  -->
  <defs>
    <style>
      .st0 {
        fill: #b5a280;
        fill-rule: evenodd;
      }
    </style>
  </defs>
  <path class="st0" d="M54,29.6c4.3-3,8.5-6.4,13.6-7.9.3,0,.5-.4.4-.7,0-.3-.4-.5-.7-.4-5.2,1.6-9.5,5-13.9,8.1-.3.2-.3.5-.1.8.2.3.5.3.8.1Z"/>
  <path class="st0" d="M49.1,23.7c.4-2.2,1.2-4.2,2.6-5.9.2-.2.2-.6,0-.8-.2-.2-.6-.2-.8,0-1.5,1.9-2.4,4-2.9,6.4,0,.3.1.6.5.7.3,0,.6-.1.7-.5Z"/>
  <path class="st0" d="M35.7,13.1c-.9-2.5-.9-5,0-7.5.1-.3,0-.6-.3-.7-.3-.1-.6,0-.7.3-1.1,2.8-1.1,5.6,0,8.3.1.3.4.5.7.3.3-.1.5-.4.3-.7Z"/>
  <path class="st0" d="M12.8,25.6c0,.7,0,1.4,0,2.1,0,.3.2.9.4,1.3.3.4.7.7,1.2.6.7-.1,1-.4,1.2-.8.2-.4.2-.8,0-1.3-.3-.9-1.1-2-1.7-2.5,0-.7.3-1.3.5-2,1.6-4.9,7.2-7.6,13.6-6.8,2.2.3,4.8,2.4,7.2,5,3.7,4,7.1,9.2,8.1,10.6.3.4.4.5.5.6.2.1.4,0,.6,0,.2,0,.3-.2.3-.3,0-.2.1-.4,0-.6,0-.1-.2-.3-.3-.4,0-.1-.2-.2-.2-.3-.2-.6-.4-1.2-.6-1.9-.7-2.1-1.1-4.2-1.4-6.4-1-6.9-2.4-14-.9-20.9,0-.3-.1-.6-.4-.7-.3,0-.6.1-.7.4-1.5,7.1-.2,14.3.9,21.3.3,1.8.6,3.6,1.1,5.4-1.8-2.5-4.3-5.9-6.9-8.6-2.4-2.4-4.9-4.2-7.1-4.5-7-.9-13.1,2.3-14.8,7.6-.2.6-.3,1.2-.4,1.7-4.5-2.1-9.6-.4-12.1,3.9-.2.3,0,.6.2.8.3.2.6,0,.8-.2,2.2-3.9,6.9-5.3,10.9-3.3ZM13.9,26.6c0,.3,0,.6,0,1,0,.2,0,.5.2.8,0,0,0,.1.1.2.2,0,.3,0,.3-.2,0-.1,0-.3,0-.5-.1-.4-.4-.9-.7-1.3Z"/>
</svg>