<?xml version="1.0" encoding="UTF-8"?>
<svg id="Layer_1" xmlns="http://www.w3.org/2000/svg" version="1.1" viewBox="0 0 533 444">
  <!-- Generator: Adobe Illustrator 29.1.0, SVG Export Plug-In . SVG Version: 2.1.0 Build 142)  -->
  <defs>
    <style>
      .st0 {
        fill: #b5a280;
        fill-rule: evenodd;
        isolation: isolate;
        opacity: .2;
      }
    </style>
  </defs>
  <path class="st0" d="M12.9-11.9c.1.1,11,6.7,17.1,10.3,18.2,10.9,32.1,18.4,48.9,26.4,18.5,8.8,30,12.9,41.2,14.4,3.6.5,10.8.5,13.4,0,4.8-.9,9.3-3.4,12.8-7.1,4.4-4.5,5.9-9.4,4.9-15.6-.4-2.3-.9-4-3-10.7-1.7-5.3-3.7-12.2-4.6-15.7-.4-1.8-.7-2.4-.9-2.2-.3.3,2.8,11.2,5.7,20.1.7,2.1,1.5,5,1.9,6.4.6,2.4.7,3,.7,5.6,0,2.6,0,3.1-.6,4.6-.9,2.8-2.3,4.9-4.6,7.3-4.4,4.5-9.3,6.7-15.8,7.2-10.5.7-24-2.6-41.1-10.2-5.5-2.4-9.8-4.5-20.3-9.7-15.5-7.8-27.6-14.6-51.2-28.9-2.1-1.3-4-2.3-4.3-2.3s-.4,0-.4,0ZM30.5-11.7c3.2,2.2,18.2,10.8,27.9,15.9,5,2.6,26.5,13.4,31.3,15.6,14.7,6.8,25.3,10,33.5,10,6.9,0,11.4-2.4,13.7-7.1,1.2-2.6,1.7-5.2,1.7-9.4s-.8-10.6-3-19c-.5-2-1.1-4.2-1.3-4.9-.2-.7-.5-1.3-.6-1.3s0,.6.3,2.2c3.2,12.1,4,16.6,4,23,0,3.9,0,4.6-.5,6-1.8,6.6-5.9,9.7-13.3,10-6,.3-13.7-1.4-23.9-5.4-5.6-2.2-11.6-4.9-26.1-12.2C57.7,3.5,48.1-1.7,35.7-9.1c-2.7-1.6-5-2.9-5.2-2.9-.4,0-.4,0,0,.3ZM48.3-11.9c.2.2,9.4,5.3,13.4,7.4,2.4,1.3,9,4.6,14.6,7.4,5.6,2.8,11.4,5.7,12.8,6.5,18.9,10.2,30.3,13.3,36.6,10.1,1.2-.6,2.8-2.3,3.3-3.5.6-1.4.9-3.7.7-5.8-.3-3.7-.9-6.4-3.2-14.2-.7-2.2-1.4-4.9-1.7-6-.3-1.2-.6-1.9-.7-1.9-.3,0,.6,3.5,1.8,7.5,4.3,13.8,4.5,19.3,1.1,22.5-5.3,4.9-17.3,2.1-37.5-8.8-1.5-.8-7.3-3.8-13-6.6-10.4-5.2-17.9-9.1-24.1-12.6-1.9-1-3.6-1.9-3.8-1.9s-.4,0-.4,0ZM68.5-11.4c.5.3,5.8,3,11.7,5.9,5.9,3,12.5,6.3,14.7,7.4,4.9,2.5,7.8,3.8,11.3,4.9,6.5,2.2,10.5,1.8,11.9-.9.4-.8.5-1.1.4-3.1,0-1.9-.3-2.8-1.2-6.1-.6-2.2-1.4-5-1.7-6.3-.3-1.4-.7-2.3-.8-2.3-.3,0,.9,4.8,2.4,10,1.7,5.9,1.2,8.6-1.8,9.6-1.4.4-4.6.1-7.5-.7-4.9-1.4-5.8-1.8-26.1-12.2-7.3-3.7-13.4-6.7-13.6-6.7-.3,0-.1.2.5.5ZM90.9-10.4c4.1,2,6,2.6,8.1,2.7,1.9,0,3-.3,4-1.2.7-.6,1.7-2.3,1.7-2.8s-.6-.2-.9.5c-.9,2-2.5,3-5.1,2.8-1.9-.1-3.5-.6-6.9-2.3-1.8-.8-2.8-1.2-3.3-1.2-.7,0-.4.2,2.4,1.5ZM152.3-11.6c0,.2.3,1.1.5,2,.5,2.1,2.7,9.3,4.3,14.3,4.3,13.7,5.3,23.2,2.9,30.4-2.3,6.9-7.6,11.1-16.2,12.9-10.6,2.2-25.3.3-42.7-5.3C78.6,35.4,53.3,22.8,17.5,1.2,4.5-6.6,3.3-7.4,1.8-8.2c-1.6-.9-1.8-.9-1.8-.6s1.1.8,2.3,1.5c1.3.7,3,1.7,3.9,2.3,2.3,1.5,13.6,8.3,18.7,11.3,40.8,24.3,72,38,95.7,41.9,5.4.9,7,1.1,12,1.2,15.9.4,25.4-4.7,28.2-15.3,1.9-7.3.8-16.5-3.7-30.9-1.7-5.2-2.4-7.8-3.4-11.4-.5-1.7-.9-3.2-.9-3.4-.1-.4-.6-.3-.4.1ZM165.9-11.4c.3,1.1,1.7,5.8,3.5,11.4,5.3,16.5,6.8,23.5,6.8,30.7,0,5-.7,8.4-2.6,12.1-1.6,3.1-5.3,7.3-8.9,9.9-11,8.1-23.6,10.8-41.1,8.7-20.2-2.4-45.9-11.9-76-27.8-13-6.9-23.2-12.8-42.3-24.3C.9,6.5,0,6,0,6.4c0,.3.5.7,1.4,1.3,41.8,25.6,68.8,39.3,93.7,47.6,15.5,5.2,27.3,7.4,39,7.4s19.5-2.1,27.7-7.2c8.6-5.4,13.3-11.6,14.7-19.5.5-2.7.4-7.9,0-11.5-.9-6.2-2.3-11.5-6.2-23.7-2.2-7-3.8-12.2-3.8-12.5s-.2-.3-.4-.3c-.4,0-.4,0-.3.6ZM179.5-11.7c0,.1.3,1.1.6,2.1,6.6,20.4,7.7,24.9,8.9,33.3,1.9,14.2-1.7,25.5-10.9,34.7-4.7,4.7-11.6,9.3-18.2,12-12.1,5.1-27.2,6-44.9,2.8-21.6-3.9-46.7-13.7-76.7-29.9-10.3-5.6-18.5-10.3-33.4-19.2-2.5-1.5-4.5-2.7-4.6-2.8,0,0-.2.2-.2.5,0,.5.5.9,7.3,5,31.9,19.1,54.4,30.5,76.2,38.6,20.9,7.7,40.2,11.5,55,10.6,11.9-.7,20.6-3.3,29.2-8.4,10.6-6.4,17.5-14.2,20.7-23.3,1.5-4.3,2-7.9,2-13.3,0-9.4-1.5-16.4-7.9-36.4-1.9-6-2.1-6.5-2.5-6.5s-.5.1-.5.2ZM195.8-11.6c.9,3.1,2.3,7.6,3.8,11.9,2.4,7.3,3.1,9.6,3.8,13.2,2.1,10.6,1.1,21-3,31.2-1.3,3.1-2.5,5.4-4.4,8.3-2.7,4.1-4.8,6.5-11.9,14-6.6,6.9-9.1,9.8-10.2,12.2-1.8,3.7-1.5,7,1.1,10.7.9,1.3,3.3,3.7,5.2,5.1,3.2,2.4,5.1,3.5,9.6,5.8,9.2,4.7,22.9,9.4,37.1,12.9,10.1,2.5,17.5,3.6,23.2,3.6,4,0,5.4-.3,7.5-1.6,3.5-2.2,4.7-5.3,3.4-8.6-1.2-2.8-3.1-5.1-10.8-12.5-6.4-6.2-9-9-11.5-12.4-3-4-4.8-7.4-6.1-11.9-2.6-8.6-3.7-15.8-3.9-25.6-.2-11,1.1-22.8,4.1-37,.7-3.2,4.4-18.7,4.7-19.6,0-.1,0-.3-.3-.3-.3,0-.6.9-2.1,6.9-3.3,13.3-4.5,19.2-5.7,27.9-2.7,18.9-1.7,34.9,2.9,48.9,1.5,4.5,3.6,8.2,7.2,12.8,1,1.3,5,5.4,9.8,10.2,8.2,8.1,10,10.2,11,12.5.7,1.5.8,3.3.3,4.4-.7,1.8-3.3,3.9-5.7,4.6-1,.3-1.9.4-4.9.4-5.9,0-13.2-1.2-23.4-3.7-4.5-1.1-6.3-1.6-12.2-3.4-13.6-4.1-25.1-9.1-32-13.9-4.3-3-6.4-5.2-7.9-8.2-.8-1.7-.9-1.8-.9-3.8s0-2.1.9-3.8c1.2-2.5,3.1-4.7,10.4-12.4,9.5-10,12.6-14,15.6-20.7,3.3-7.4,4.8-14.4,4.8-22.7,0-7.6-.9-11.9-4.7-23.5-2.3-6.9-3.2-9.7-3.6-11.5-.2-.7-.3-.9-.7-.9s-.4.1-.3.4ZM215.7-11.2c0,1.3-.5,2.5-1.7,4.4-1.6,2.4-2.1,4-2.1,6.4,0,2.3.2,3,1.9,5.8,1.6,2.6,2,3.9,2.3,7.1.9,9.3-3.4,28.9-8.9,39.8-3,6.1-6.5,10.7-13.6,18.2-4.6,4.9-6.1,6.9-6.9,9.6-.7,2.2-.4,5,.8,7,2.6,4.2,8.3,7.3,21.9,11.8,2,.7,5.8,2.1,8.4,3.2,8.2,3.5,10.3,4.2,14.4,4.8,4.9.7,8,.6,9.9-.3,1.3-.6,1.7-1.5,1.7-3,0-2.3-2.7-6.6-7.6-12.3-1-1.2-3.1-3.5-4.5-5.2-5.9-6.7-6.9-8.4-8.1-12.1-2-6.4-3.3-12.7-4.1-20.2-.3-2.7-.4-5.2-.4-11.6,0-10.8.2-13.1,2.3-23.7,1.2-6.5,1.4-10.3.8-15.4-.5-3.7-.5-7.5,0-9.4.5-2,1-2.9,2.1-4.3,1.1-1.4.8-1.7-.4-.3-2.4,2.8-3,6.8-2.2,13.7.8,6.4.6,8.8-1.3,18.6-1.1,5.8-1.5,9.5-1.8,16.6-.4,13,1,24.7,4.3,35.4.9,2.9,1.3,3.9,2.3,5.4,1.1,1.7,3.8,5,7.1,8.8,6.2,7.1,8.6,10.2,10.1,13.1,1.5,3,1.3,4.8-.6,5.7-.9.4-1.4.5-3.9.6-3.3,0-6.1-.3-9.4-1.1-2.4-.6-4.4-1.4-10.2-3.9-2.4-1-6.8-2.7-9.8-3.7-3-1-6.6-2.3-8-2.9-13.4-5.3-16.9-11.4-10.9-19.3.6-.8,2.2-2.6,3.5-4,7.8-8.1,11.4-12.9,14.7-19.5,4.8-9.6,9-26.8,9-37.1,0-4.5-.6-7-2.4-10-1.8-2.9-2-3.7-1.9-5.9.1-2.3.6-3.6,2-5.9.6-.9,1.2-2.1,1.4-2.7.3-1.1.4-2.8,0-2.8s-.2.4-.2.8ZM245.2-10.8c-.2.7-.4,1.3-.4,1.5-.7,2.1-2.5,11.6-3.1,16.5-.4,3.1-1.3,12.7-1.6,17.8-.4,6.1-.4,24.1.1,29.1.5,5.1,1.4,11.9,2.1,15,2,9,5.5,13.9,10.6,15.3,1.2.3,4.7.4,6.5,0,.7-.1,2.4-.5,3.7-1,2.3-.7,4.3-1.5,14.6-5.7,11-4.5,20.2-6.5,32.6-7.4,4.2-.3,13.7-.1,18,.3,9.4.9,13.4,1.7,23,4.3,12.6,3.4,17.4,4.4,23.3,4.4,7.8,0,11.1-2.7,10.3-8.4-.3-2.4-1-4.5-3.3-10.5-3.1-8.1-3.8-11-3.8-16.2,0-16.4,7.4-33,23.8-53,2.8-3.5,2.8-3.5,2.2-3.5-.6,0-.9.3-3.1,3-13.2,16.2-20.4,30-22.9,43.6-.6,3.4-.8,5.7-.8,9.9,0,6.1.5,8.4,3.8,16.8,3,7.6,3.7,10.5,3.2,12.9-.3,1.6-1.6,3-3.4,3.6-4.7,1.7-12.4.9-26.9-3.1-8.9-2.4-10.8-2.9-14.4-3.5-17-2.9-33.8-2.5-48.4,1.2-5.5,1.4-9.1,2.6-18.1,6.4-8.4,3.5-11.4,4.4-15,4.9-5.2.6-9.1-1.5-11.6-6.4-2.5-4.7-3.9-11.7-5-23.7-.4-3.8-.5-19.6-.2-24.9.6-12.4,1.7-22.3,3.1-30,.6-3,2.1-9.4,2.4-10.2.1-.3,0-.4-.4-.4s-.6.1-.9,1.2ZM254.8-10.2c-1.9,6.4-3.4,14.7-4.5,25.2-.2,2.3-.6,5.9-.8,8.1-.5,5.1-.8,15.4-.4,18.9.7,7.4,2.9,14.1,5.7,17.4,1.2,1.4,1.2,1.5,2.8,2.6,4.3,3,11.1,3.7,20.9,2.3.7-.1,5.3-.9,10.2-1.6,8.9-1.5,14.5-2.3,18-2.7,5.9-.7,7.3-.7,14.8-.7,10.8,0,12.6.3,23.4,3.6,8.6,2.6,12.2,3.4,15.3,3.1,4.8-.4,7.4-3.1,8.4-8.8.3-1.6.3-2.9.2-8.6,0-4.5,0-7.7.1-9.4.8-8.5,3.2-17,7.6-26.2,3.7-7.8,10.4-18.2,14.9-23.1,1.3-1.4,1.5-1.7,1.1-1.7-1.1-.2-7.2,7.8-11.9,15.7-5.6,9.4-9.2,17.9-11.1,26.6-1.4,6.3-1.8,11.6-1.5,18.2.3,5,.1,7.6-.5,10.1-1.2,4.6-3.7,6.5-8.4,6.5s-5.8-.6-12.1-2.5c-8.5-2.6-10.6-3.1-14.1-3.6-6.8-1-15-1-24.3,0-5.6.6-8.8,1.1-22.6,3.3-11.1,1.8-11.5,1.9-16.3,1.9-4.7,0-6-.2-8.9-1.3-4.4-1.7-6.9-4.7-8.9-10.7-1.7-5.1-2.3-9.6-2.3-17.2,0-5.8.2-7.8,1.1-16.9.2-2.1.6-5.2.7-6.9.8-7.6,2.4-16,4.2-21.8.4-1.3.4-1.3,0-1.3s-.5.4-.9,1.7ZM264.9-9.7c-2.6,7.1-4.6,16.2-5.7,26.5-.4,4-.4,16.6.1,20,1.1,8,2.9,12.2,6.3,15,2.4,2,5.6,2.9,10.3,2.9,3.1,0,5.2-.2,12.3-1.3,4.8-.7,11.8-1.6,16-2,7.2-.6,10.9-.7,25.9-.7,14.3,0,15.9,0,17.4-.4,7.3-1.7,10.2-5.4,12.2-15.8,3-15.7,8.9-29.3,18.7-43.4,2-2.9,2-2.8,1.6-2.8-.5,0-5.2,7.1-8.2,12.2-1.5,2.7-4.3,8.1-5.2,10.1-3.5,8-5.9,15.7-7.2,22.7-2.2,11.7-5.1,15.5-13,16.9-1,.2-6,.3-17.6.3-16.2,0-18.8.1-27.5.9-3.6.3-10.3,1.2-14.3,1.9-6.3,1-7.4,1.1-11.3,1.1-4.3,0-5.5-.2-8.1-1.4-5.5-2.7-8.2-10-8.5-23.6-.3-12.8,2-27.7,6.1-38.5.6-1.6.8-2.4.6-2.4s-.6,1-1.1,2.2ZM275.1-10c-2.6,5.9-4.3,11.8-6,21.6-1.1,6.2-1.4,9.5-1.4,14.3,0,4.8.3,7.2,1.3,10.1,1.5,4.5,4.4,7.3,8.6,8.3,1.7.4,5.6.4,7.9,0,2.5-.4,10.3-1.5,14.1-1.9,8.3-.8,12.2-1,23.9-1.1,6.4,0,12.2-.1,13-.2,4.6-.5,8.5-2.2,10.8-4.9,2.4-2.7,3.4-4.8,5.2-11.1,3.7-12.8,9.1-24.9,15.6-35.2.6-1,1-1.8.9-1.9-.3,0,0-.4-2.3,3.3-6.4,10.5-11,21.1-14.8,34.1-1.4,4.6-2.1,6.5-3.5,8.6-1.8,2.7-4,4.5-6.8,5.5-3.1,1.1-3.1,1.1-17.7,1.3-13.1.2-14.9.2-23.6,1-3.2.3-7.9.9-13.1,1.7-2.3.3-4.9.6-5.9.6-5.7,0-9.8-2.8-11.6-8-1.1-3.1-1.3-4.6-1.3-10.4s.1-7,1.2-13.2c1.7-9.9,3.4-16.5,6-22.3.6-1.4.9-2.2.7-2.2s-.6.9-1.1,1.9ZM286.1-11.3c-.9,1.4-2.9,5.8-3.7,7.8-1.7,4.6-3.2,10.6-4.3,17.8-.7,4.5-.8,10.6-.2,13.2,1.3,5.7,4.8,8.3,11.2,8.7,3.7.2,7-.3,17.9-2.6,2.8-.6,6.4-1,12.4-1.4,9.2-.6,12.6-1.2,16.3-3,1.6-.8,2.5-1.4,3.8-2.6,2.7-2.5,4.1-4.8,6.2-10.6,3.8-10,7.8-19,11.4-25.3,1.3-2.3,1.6-3.1.9-2.4-.9.9-5.7,10.5-8.4,16.8-.9,2.1-2.6,6.2-3.7,9.1-1.1,2.9-2.3,5.8-2.7,6.5-3,6-7.5,9.1-15,10.2-2,.3-5.5.6-9.8.8-4.2.2-8.8.8-11.6,1.4-12,2.5-12.4,2.5-16.4,2.6-3.4,0-4.8-.2-6.9-1.2-2.7-1.3-4.3-3.4-5.1-6.9-1.1-4.6-.2-14.1,2.4-24.3,1.1-4.4,2.9-9,5.1-13,.6-1.1,1.1-2.1,1.1-2.2,0-.3-.5,0-.8.6ZM296.3-9.9c-3.7,4.9-6.4,11.7-8,19.8-1.4,7.4-1.1,11.2,1.1,13.6,2.5,2.8,5.8,3,15.6.9,3.3-.7,6.6-1.1,12-1.5,5.9-.4,8.2-1,11.7-3,6.9-4,12.8-11.5,16.7-21,1.5-3.7,3.7-10.7,3.4-11-.2-.2-.4.1-1.4,3.7-2.1,7.4-5,13.5-8.8,18.6-1.8,2.4-6.1,6.7-8.2,8-4.7,3.1-7.2,3.8-15,4.3-4.5.3-7.3.7-11.6,1.6-4.9,1-6.3,1.2-8.6,1.1-2.7-.1-3.8-.6-5.2-1.9-1.5-1.5-1.8-2.5-1.9-5.8,0-2.1,0-3.3.4-5.4.6-3.8,2-9.1,3-11.8,1.5-4,4.1-8.7,6.3-11.3.9-1,.9-1.1.5-1.1s-1,.9-1.8,2.1ZM310.1-10.6c-4.2,2.8-8,7.4-10.5,12.6-1.3,2.8-1.9,4.8-1.9,7s.8,4.1,2.7,5.1c1.2.6,3.9,1.1,5.1.9,2.3-.3,7.3-.8,10.9-1,3.2-.2,4.3-.4,5.3-.8,2.5-.9,4.3-2.2,7.4-5.4,3.5-3.5,6.4-7.7,8.4-11.9,1.6-3.5,2.7-7.9,2-7.9s-.6.4-.6,1.1c0,1.5-1.6,5.6-3.2,8.6-3.3,5.9-8.6,11.8-12.5,13.9-2.1,1.1-3.2,1.3-9.2,1.7-1.8.1-4.4.4-5.7.5-3.1.4-4.6.4-6.1,0-2.9-.7-4.1-2.6-3.8-5.6.4-4.3,3.9-10.8,7.9-14.8,2-2,3.6-3.2,6.1-4.7l1.4-.8h-.8c-.7,0-1.2.3-2.9,1.4ZM412.5-11.2c-.8,1.6-1.1,3.1-1,5.3.1,2.4.7,4.1,2.3,6.5,3,4.5,11.4,10.2,20,13.5,9.9,3.8,19.3,5.3,32.1,5,11.2-.2,20.9-1.5,41.3-5.3,20.3-3.8,29.2-5.1,39.4-5.7,11.4-.6,22,.7,30.8,3.9,3.4,1.2,7.9,3.4,11.1,5.3,1.4.8,3.8,2.3,5.3,3.2,1.5.9,2.8,1.7,2.9,1.7s0-.3,0-.6c0-.5-.5-.8-5.5-3.8-5.9-3.5-7.7-4.5-11.2-5.9-9.3-3.8-20.5-5.5-32.7-4.9-10,.5-19,1.7-36.6,5-18.5,3.5-24.4,4.4-33.9,5.4-3.7.4-5.4.5-12.7.5-8.9,0-10.3,0-16-1.1-9.4-1.6-18.2-4.9-25.5-9.7-2.8-1.9-3.6-2.4-5.5-4.4-4.6-4.5-5.8-9-3.7-13.8l.5-1.1h-.5c-.4,0-.6.2-.9.8ZM438.4-10.8c-1,1.6-1.4,2.7-1.4,4.1,0,4.6,5.6,8.8,15.4,11.1,4.4,1.1,6.8,1.3,12.4,1.3,9.9,0,19.3-1.2,39.9-5.1,21.1-4,29.5-5.2,40.4-5.8,4.3-.3,13-.1,16.8.2,12.3,1.2,23.6,4.8,32.8,10.4,1.9,1.2,2.4,1.3,2.1.6-.2-.4-4.3-2.8-7.8-4.5-14.7-7-31.8-9.1-54-6.6-6.7.8-14.3,2-26.9,4.3-24.6,4.6-31,5.5-41.4,5.7-6.7.1-9,0-14-1.3-5.7-1.4-9.8-3.3-12.5-5.8-2.8-2.6-3.1-5.6-.8-8.7.9-1.2.9-1.3.4-1.3s-.7.3-1.3,1.2ZM592.1-10.9c1.4.6,3,1.4,3.6,1.7.8.4,1.1.5,1.1.3,0-.4-5.3-2.9-6.3-3-.7,0-.4.1,1.6,1ZM404,20.1c-1.9.5-3.4,1.3-5.7,3-7.2,5.4-9.5,12.5-7.6,23.6.3,2,1.5,6.8,3,12.4,1.9,7,2.6,11.8,2.4,15.6-.5,9.4-7.1,15.8-18.3,17.8-2.3.4-3.2.5-8.5.5-8.4,0-12.6-.6-28.7-3.7-12.2-2.4-14.7-2.8-21.5-3.2-4.3-.3-14-.3-17.7,0-13.9,1-22.8,4.3-26.5,9.9-2.2,3.3-2.4,7.7-.6,12.6,1,2.7,2.1,3.7,6.4,6,5.8,3.1,6.4,3.8,8.6,10.8,1.4,4.2,2.6,7.1,3.7,8.4.9,1,2.8,2.5,4.4,3.2,2,1,3.8,1.4,6.6,1.5,2.9.1,5.1-.1,10.5-1.2,8-1.6,11.7-1.3,16.1,1.2,2.9,1.6,5.4,4.1,7.4,7.4,3.5,5.5,4.2,6.5,5.5,7.7,1.7,1.7,2.5,2.3,4.3,3.2,2.1,1.1,3.2,1.4,7.8,2.6,10.9,2.8,17.5,5.9,24.6,11.6,3.7,3,15.7,13.7,17.2,15.4,1.9,2.1,4.6,5.5,6.7,8.3,7.4,10.2,12.2,14.8,18.9,18,1.3.6,3.8,1.8,5.6,2.7,4.1,1.9,6.4,3.5,8.7,5.7,2.3,2.3,3.1,3.5,6.5,9.2,6.4,10.9,10.4,16.1,13.2,17.5,1.2.6,1.6.6,2.4.2,1.6-.8,2.2-4.3,1.9-9.9-.3-4.7-1-6.5-4.4-10.8-4-5.2-5.1-6.6-5.9-8.3-.9-1.7-.9-1.8-.9-4.1s0-2.4.8-3.9c.7-1.5,2.7-3.7,4.4-5,2.5-1.9,4.8-4.3,5.7-6.1.8-1.5,1.9-4.6,2.5-6.9.8-2.8,1.3-5.7,2.1-11.6.9-7.1,1.5-9.8,2.9-13.4,1.4-3.6,3.7-7.3,6.8-10.9,8.8-10.1,19.6-18.3,32-24.3,4.8-2.3,7.5-3.5,12.1-5,18-6.1,32.3-5.6,47.4,1.6,6.5,3.1,11.4,6.3,23,15,3.6,2.7,6.8,5,6.9,5.1.2,0,.3,0,.3-.5s-.1-.7-.3-.7c-.1,0-3.3-2.4-7.1-5.2-7-5.3-13.5-9.7-17.5-12-14.7-8.4-29-10.5-45.1-6.5-17.8,4.4-34.7,13.9-47.7,26.9-5.5,5.5-8.3,9.1-10.6,13.6-2,3.9-3,7.6-3.9,14.3-.3,2.2-.7,5-.9,6.2-1,6.7-3.1,13.1-5.3,15.9-.5.6-1.7,1.8-2.8,2.7-5.6,4.7-7,6.9-7,10.8,0,3.1,1.1,5.2,5.5,10.8,4.9,6.3,5.4,7.3,5.8,12,.3,4.4,0,7.8-.9,9-1.9,2.4-7.1-3.9-15.7-18.7-2.6-4.5-4.7-7.2-7.4-9.3-2.3-1.9-4.3-3-9.2-5.3-6.7-3.1-9.1-4.7-12.9-8.3-2.8-2.7-4.4-4.6-8.8-10.6-6.6-8.8-7.2-9.5-19.8-20.5-10.5-9.2-16.8-12.5-30-15.8-1.8-.5-3.9-1-4.5-1.2-2.2-.8-4.6-2.1-6.1-3.5-1.8-1.7-2.7-2.9-4.7-6.1-2.1-3.3-2.9-4.5-4.4-6.1-3.3-3.5-7-5.4-11.3-5.9-2.3-.3-5.1,0-10,.9-7.6,1.4-10.6,1.6-13.7.8-3.7-.9-6.9-3.3-8.3-6.1-.4-.8-1.3-3.2-2-5.4-.7-2.2-1.7-4.7-2.1-5.6-1.4-2.9-2.3-3.7-7-6.2-4.4-2.3-5.3-3.2-6.3-6.1-4.7-13.4,7.7-20.8,35-20.8,11.2,0,15.5.5,32.2,3.8,13,2.6,20.6,3.5,27.4,3.5,3.3,0,7.8-.4,10.1-.9,9.4-2.1,15.7-7.8,17.1-15.4.3-1.4.3-2.6.2-5.7-.1-4.5-.5-6.7-2.9-15.3-3.2-11.8-3.7-17.1-2.4-22.4,1.3-5.1,4.9-9.5,9.9-12.3,1.9-1,3.7-1.4,6.8-1.4,6,0,13.5,2,27.5,7.4,15.8,6,19.3,7.3,23.7,8.4,4.1,1,5.3,1.1,12.2,1,10.3-.2,16.5-.9,37.7-4.5,13.9-2.3,19.2-3.1,27.2-3.9,4.6-.5,18.5-.5,22.4-.1,4.1.4,10,1.5,13.4,2.4,5.8,1.5,15.3,4.8,22.2,7.8,1.1.5,2,.8,2,.7.2-.2.1-1.1,0-1.1s-1.5-.5-3-1.2c-17.4-7.3-29.5-10.1-44.7-10.1-10.4,0-19.1,1-40.5,4.6-19,3.2-25,3.9-35.4,4.4-10.4.4-13.6-.4-34.9-8.6-15.7-6.1-23.5-8.2-30.1-8.2-2,0-3.1.1-4.2.4ZM.2,39.6c0,.5.2.6,1.2,1.1,2.2.9,9.9,4.7,15.2,7.4,5.6,2.9,8.6,4.5,17.8,9.5,26.4,14.5,38.8,20.4,53.5,25.4,10.4,3.6,18.2,5.1,36.8,7.6,2.6.3,6.8.9,9.5,1.3,20.4,2.7,29.9,5.1,35.7,8.9,3.8,2.5,5.4,5.8,4.5,9.5-1.6,6.9-10.1,16-26,27.8-28.6,21.3-52.9,32.4-76.2,34.8-4.2.4-12.8.4-16.8,0-18.1-1.9-34-8.7-52.6-22.4-1.3-1-2.4-1.8-2.5-1.8s-.1.3-.1.6c0,.5.4.8,2.8,2.6,18.5,13.4,33.2,19.7,51.1,21.9,3.8.5,15,.5,18.6.1,13.4-1.6,24.3-4.8,38-11.3,2-.9,3.7-1.8,3.9-1.9s1.1-.6,2.2-1.2c15.8-8.1,39.1-24.7,49.6-35.4,4.1-4.2,6.3-7.1,7.8-10.3,1.1-2.4,1.4-3.4,1.4-5.6,0-7.4-7.8-11.8-26.4-15.1-4.9-.9-10.8-1.7-22.9-3.3-15.8-2.1-20.4-2.8-26.9-4.5-9.6-2.4-18.9-5.7-30.2-10.9-3.3-1.5-14.4-7-17.3-8.5-.7-.4-2-1.1-2.8-1.5-4.6-2.4-13.4-7.2-14.2-7.7-.3-.2-4.1-2.2-8.3-4.5-10.2-5.5-20.1-10.4-25.5-12.8l-.9-.4v.6ZM531.6,41c-7.1.4-13.9,1.7-19.2,3.7-1.3.5-5.2,2.3-8.6,4-7.4,3.6-9.8,4.7-13.2,5.6-2.1.6-2.9.7-5.8.8-6.6.2-9.6-1-17.1-6.7-1.9-1.5-4.3-3.2-5.1-3.8-4.3-2.8-8.9-3.6-13-2.3-2.1.7-6.2,2.7-11.4,5.6-8.4,4.7-10,5.4-16.6,7.1-4.3,1.1-5.2,1.5-6.2,2.6-1.8,2-3.5,7.7-5.8,18.7-2,9.7-4,14.3-8.4,18.9-3,3.1-6,5.3-10.1,7.2-9.2,4.4-20.4,5.3-37.2,3-3.2-.4-7.2-1.2-16.1-2.9-11.1-2.2-13.6-2.6-18.9-2.8-7.9-.3-13.3.3-18.6,2.2-3.6,1.3-6.7,3.4-7.5,5.2-.8,1.8-.3,3.6,1.3,5.3,2.2,2.2,5.4,3.7,14.6,6.7,8.3,2.7,11.7,4,18.6,6.7,30.6,12.1,55.1,28.1,79.3,51.8,4.9,4.8,7.2,6.8,9.8,8.8,8.7,6.6,15,7.1,20.7,1.7,2.9-2.7,5.2-6.2,11.3-16.7,5-8.6,9.2-14.6,14.8-21.1,13.3-15.3,30.3-27.2,48.9-34.1,8.4-3.1,15.3-4.8,23.3-5.7,4.4-.5,12.6-.3,16.8.3,13.7,2.1,26,8,42.2,20.2,1.3,1,2.5,1.8,2.6,1.7.3-.3,0-.8-.6-1.2-.4-.2-2.1-1.5-3.8-2.7-16.9-12.4-29.4-17.8-44-19.1-12.9-1.2-26.8,1.4-41.9,7.9-23.2,9.9-43.2,27.3-56.5,49.4-.9,1.4-2.9,4.8-4.4,7.5-6.1,10.4-8.7,13.5-12.6,15.5l-1.8.9h-2.5c-2.8,0-3.6-.2-6.5-1.6-3.9-1.9-7.5-4.8-15.1-12.1-29.7-28.8-57.5-45.4-98.8-58.9-8.2-2.7-11.2-4.1-13.4-6.2-2.5-2.4-2.5-3.9-.2-6.1,2.3-2.2,6.8-4,12.5-5,2.3-.4,3.3-.5,8.6-.4,7.4,0,8.4.1,20.7,2.6,17.1,3.4,24.6,4.4,33,4.4,14.1,0,24.4-3.7,32-11.6,3.3-3.4,5.5-7.1,6.9-11.9.4-1.3,1.3-5.1,2-8.4,2.3-11,3.8-15.7,5.4-17.4.9-.9,1.9-1.3,5.4-2.2,6.5-1.6,9.5-2.9,16.1-6.7,4.5-2.6,9-4.8,11.2-5.7,1.7-.7,2.3-.8,4.2-.9,4.7-.2,7.1.9,14.5,6.5,5.2,4,8.3,5.7,11.7,6.4,2.2.5,5.3.6,7.7.3,4.7-.5,7.5-1.5,16.7-6,9-4.4,11.5-5.3,17.3-6.5,6.2-1.3,13.4-1.6,27.2-1.4,10.1.2,12.4.4,18.5,1.6,6.6,1.3,17.1,5,26.6,9.3,2,.9,3.7,1.6,3.8,1.6,0,0,.2-.3.2-.5s0-.4-.2-.3c-.1,0-.7-.1-1.4-.5-1.4-.7-5.2-2.4-8.2-3.6-8.4-3.5-17.2-6.2-23.2-7.2-5.7-1-7.6-1.1-19.6-1.1-6.3,0-12.1,0-12.8,0ZM.2,54.1c0,.3.8.8,3.1,1.9,5.5,2.6,11.1,5.6,20.7,10.8,3,1.7,7,3.8,8.8,4.8,1.8,1,5,2.7,7.1,3.9,5.3,2.9,18.9,9.7,23.5,11.8,10.6,4.8,20.5,8.4,29,10.8,6.3,1.7,11.4,2,25.3,1.7,20.3-.5,26.4.2,32.7,3.8,3.6,2.1,5.3,3.7,5.3,5.1s-1.7,2.5-6.9,4.5c-5.3,2.1-7.4,3.3-10.7,6.3-3,2.7-4.3,4.8-6.3,10.1-1.6,4.3-2.5,6-4.4,9-2.4,3.6-5.2,6.2-7.9,7.4-2.3,1-3.3,1.1-10.9,1.1-6.7,0-7.3,0-9.4.5-3.7.8-10,2.7-17.2,5.1-11.5,3.8-15.6,5-20.4,5.7-9.8,1.4-19.4-.4-30.7-5.8-8-3.9-13.8-7.6-25.2-16.2-3-2.3-5.5-4.1-5.6-4.1s-.1.2-.1.4c0,.5,11,8.8,17.4,13.1,9.4,6.3,19.3,10.8,27.4,12.7,6.6,1.5,13.4,1.5,20.3,0,3.4-.7,7.4-1.9,16.1-4.8,11.3-3.8,16.9-5.3,20.6-5.7.7,0,4.3-.2,8-.2,6.8,0,6.8,0,8.4-.6,2.3-.8,4.3-2.1,6.2-3.9,3.2-3.2,5.8-7.5,7.7-12.8,2.4-6.5,3.9-8.7,8.6-12.4,2-1.5,3.6-2.4,8.5-4.4,6.4-2.6,7.8-3.9,6.6-6.3-1.1-2.3-6.4-5.6-10.9-6.9-5.5-1.6-9.8-1.8-29-1.5-15.4.2-18,0-25.9-2.3-16.5-4.8-32.3-12.1-62.5-28.6-8.8-4.8-15.5-8.4-21.4-11.3-3.3-1.6-6-3-6.1-3s-.1.2-.1.4ZM544.1,54.4c-7.1.4-14.1,1.3-27,3.4-26.8,4.5-35.3,5.5-47.8,5.5-6.5,0-10-.4-17.3-1.8-2-.4-4.8-.9-6.1-1.1-8.7-1.2-14.2,1.8-20.2,11-2.5,3.8-4.3,7.7-7.8,16.9-3.9,10.3-6.6,15.1-10.7,19.1-3.5,3.4-5.6,4.5-15.3,7.3-11.7,3.4-14.7,4.6-18.3,7.1-2.6,1.9-3.9,3.9-3.9,6.4,0,1.8.5,3.1,2.1,5.5,2,3.1,5.8,6.6,11,10.6,2.6,2,4.1,3,10.1,7,2,1.4,4.3,2.9,5.1,3.5,8.2,6,15.6,9.9,21.1,11,2.5.5,6.3.5,8.5,0,5.9-1.5,11.1-5.7,17.1-14,8.9-12.3,18.3-21.8,29.7-30.4,7.1-5.4,16.6-11,23.9-14.2.8-.4,2-.9,2.7-1.2,2-.9,6.9-2.8,10-3.8,7.9-2.7,15.4-4.3,23.8-5.2,3.2-.3,11.7-.3,15,0,15.2,1.6,28.3,6.7,43.3,16.8,1.9,1.3,3.5,2.4,3.6,2.4.9,0-4-3.4-10.1-7.1-3.4-2.1-10.7-5.7-13.7-6.9-6-2.4-11.4-3.9-17-4.8-12.9-2.2-26.5-1.2-40.4,2.9-27.4,8.1-51.7,25.2-69.3,48.7-1.5,2-3.2,4.3-3.9,5.2-1.7,2.3-5.2,5.9-7.3,7.4-2.2,1.7-5.4,3.2-7.7,3.8-2.1.5-5.6.6-8,.1-5.4-1-12-4.4-20.5-10.5-1.7-1.2-5.3-3.7-8-5.5-10.6-7.1-15.8-11.6-18.9-16-4-5.9-2-10.2,6.6-13.9,2.8-1.2,6-2.3,12.6-4.2,10.8-3.1,12.5-3.9,16.4-7.9,3.3-3.3,6.4-8.7,9-15.3,5.7-14.6,6.6-16.6,9.5-20.9,3-4.4,6.1-7.6,9.2-9,4.1-2,7.4-2,16.8-.2,7.5,1.5,8.4,1.6,17.8,1.6,5.3,0,9.6-.1,11.3-.3,11.8-1.1,14.5-1.5,37.5-5.4,15.4-2.6,23.3-3.4,32.1-3.2,6.7.2,10.5.6,16.2,2.1,6.7,1.8,18.2,6.3,26.7,10.6,1.5.7,2.8,1.4,2.9,1.4s.2-.1.2-.3-.1-.3-.3-.3c-.1,0-1.4-.6-2.9-1.3-10.7-5.2-21.2-9.2-28.9-11.1-3.1-.7-7.4-1.3-11.7-1.6-4.1-.2-4.3-.2-9.1,0ZM544.2,63.7c-2.4.1-6.5.5-10.5,1-4.9.6-4.2.5-17.9,2.8-18.6,3.1-23.9,3.8-34.6,4.7-3.6.3-6.5.4-17.4.3-8.3,0-13.8,0-15.1.2-10,1.1-15.6,5-20,13.7-.4.7-1.4,3.3-2.3,5.6-2.7,7-4.4,10.6-6.7,14.5-2.3,3.8-6,8-9,10.3-1.6,1.2-5.8,4-9.7,6.3-7.5,4.5-9.8,6.7-10.2,9.6-.3,3.1,2.4,6.8,8.6,11.7,5.2,4.1,10.8,7.5,14.9,9,8,2.9,13.9,1.5,20.5-4.9,2.3-2.2,3.3-3.4,8.3-9.5,5.9-7.3,9-10.6,14.4-15.5,13.3-12.2,28.3-21.5,44.6-27.9,22.4-8.7,43-10.5,62.8-5.4,9.9,2.5,20,7.1,29.8,13.3,1.2.7,2.2,1.4,2.3,1.4s.1-.1.1-.3,0-.3-.2-.3-1-.5-1.9-1.1c-12.3-7.9-25.4-13.1-38.5-15.2-8.8-1.4-20.7-1.3-30,.3-16.2,2.8-33.6,9.6-48.6,19.1-9.1,5.8-16.2,11.4-23.9,18.9-3.9,3.9-6.1,6.3-11.8,13.2-6.8,8.3-10.1,11.5-14,13.4-6.3,3.1-13.7,1.4-23.5-5.3-3.7-2.6-7.3-5.5-9.6-7.9-4.3-4.5-4.8-7.4-1.7-10.5,1.4-1.5,3.2-2.7,7.8-5.6,2.3-1.4,5.2-3.2,6.5-4.1,8.8-5.8,13.5-12.5,19-26.9,2.4-6.4,4.4-10,7.2-12.9,3.1-3.3,6.6-5.1,11.7-6.1,3.2-.7,6-.8,18.9-.7,13.3,0,14.6,0,23.3-.9,7.1-.7,11.3-1.3,23.1-3.3,16.5-2.8,18.1-3,23.2-3.6,16.2-2,24.5-1.4,36,2.5,2.7.9,9.4,3.5,12.2,4.8,1.2.5,2.5,1.1,3,1.4.5.2,3.3,1.6,6.2,3,2.9,1.4,5.3,2.6,5.4,2.6s.1-.1.1-.3,0-.3-.2-.3-2.1-1-4.5-2.1c-13.5-6.7-24.6-10.8-32.6-12.2-4.2-.7-9.8-1-15.4-.7ZM.2,68.8c0,.2,2,1.3,4.6,2.7,2.5,1.3,8.4,4.4,13,6.9,24.6,13.4,38.9,20.2,56.9,27.1,4.4,1.7,5.4,2,11.1,3.7,13.5,4,19.4,6.6,23.1,10.4,2.1,2.1,2.5,3,2.5,5.5,0,1.8,0,2.1-.6,3.2-3.1,6.1-14.3,12.1-30.4,16.1-7.3,1.8-12.5,2.6-17.4,2.6-12,0-24-3.9-36.5-12-3.9-2.5-7.8-5.3-18.4-13.3C1.8,116.8.2,115.7.2,116s.8.9,1.8,1.6c1,.7,3.7,2.8,6.1,4.5,10.1,7.6,12.7,9.5,16.8,12.2,13.2,8.8,25.4,12.9,38,13,11.9,0,32.2-5.8,41.9-12.2,2.6-1.7,5.5-4.6,6.4-6.4,1.7-3.5,1.2-6.4-1.6-9.4-2.2-2.4-5.5-4.4-10.8-6.5-3.4-1.4-5.9-2.2-12.3-4.1-9.6-2.8-21.9-7.6-34.7-13.6-1.1-.5-3.1-1.4-4.4-2-6.1-2.9-16.7-8.3-28.9-15C6.5,71.7.2,68.4.2,68.8ZM206.3,68.9c-2.5.8-4.6,3.4-6.2,7.6-.7,1.8-.8,2.3-.8,4.1,0,2.3.2,2.9,1.5,4.3,1.2,1.3,2.9,2.2,6.9,3.6,5.5,2,6,2.2,7.9,2.3,1.5,0,1.8,0,2.6-.4,2.9-1.5,2.4-6.5-1.3-13.9-2.4-4.8-5.6-7.6-8.7-7.8-.8,0-1.6,0-1.9.1ZM207,69.5c-2.6.5-5,3.5-6.5,8.3-.6,1.8-.6,4-.1,5.2.5,1.1,2.1,2.6,3.7,3.4.7.3,2.7,1.1,4.5,1.8,6.1,2.2,7.4,2.5,9,1.8,1.5-.7,2-2.1,1.6-4.8-.4-2.8-2.7-8.5-4.5-11-2.4-3.4-5.4-5.2-7.8-4.7ZM544.2,72.8c-2.1.1-7.8.7-9.4.9-.8.1-2.8.4-4.5.6-1.7.2-8.3,1.3-14.7,2.4-26.4,4.4-35.7,5.3-53.3,4.9-9.7-.2-13.1,0-16.8,1.3-3.9,1.4-6.7,4-8.3,7.7-.9,2.1-1.7,6-2,10.1-.7,8.5-1.5,12.5-2.9,15.9-1.7,4-2.4,4.7-10,10.4-6.5,4.9-9.2,7.5-10.6,10.4-1.4,2.7-.9,5.2,1.5,7.5,1.6,1.5,2.7,2.1,4.7,2.1,5.4,0,11.1-5.5,21.7-20.5,5.8-8.2,7.1-9.8,8.9-10.5.9-.3,1.8-.4,5.6-.5h4.6c0-.1,1.4-.8,1.4-.8,2.7-1.3,4.3-3.6,4.9-7.1.2-1,.4-2.9.6-4.1.6-3.9,1.7-5.7,5.2-7.9,4.9-3.2,13.4-6.1,27.9-9.6,3.4-.8,7.9-1.9,9.9-2.4,2-.5,5.2-1.3,7.2-1.8,15.3-3.9,30.8-4.5,45.5-1.6,10.8,2.1,22.2,6.4,32.9,12.6,1.4.8,2.7,1.5,2.8,1.5s.2-.2.2-.4c0-.6-8.5-5.2-14.7-7.9-21.9-9.5-44.9-10.9-69.9-4.1-1.9.5-6.9,1.8-11.1,2.8-9.4,2.3-14.3,3.6-19.1,5.2-8.1,2.7-13.3,5.5-15.4,8.3-1.4,1.9-1.8,3.2-2.4,7.4-.4,3-.6,4-1.2,5.2-.6,1.3-1.2,2-2.2,2.7-1.7,1.2-2.5,1.4-7.6,1.6-4.3.1-4.7.2-5.6.6-1.8.8-3.1,2.4-7.8,9.1-9,12.9-14.1,18.5-18.5,20.7-1.6.8-2.2.9-3.6.9-2.1,0-4-1.2-5.4-3.5-1.4-2.4-.9-4.7,1.9-7.9.8-.9,1.6-1.8,1.7-1.9.1-.1.9-.8,1.7-1.5.8-.7,3.4-2.8,5.8-4.6,5.5-4.1,7.4-6,8.6-8.3,1.8-3.5,2.7-7.2,3.4-13.6,1-10,1.5-12.3,2.9-15.2,1.6-3.4,5-5.9,9.2-6.9,3.6-.8,4.8-.9,15.3-.7,18,.3,27.5-.6,51-4.6,21.9-3.7,27.3-4.4,36.1-4.2,3.8,0,6.2.2,7.5.4,8.4,1.5,20.1,6.1,35.4,14,2,1,3.7,1.9,3.8,1.9.4,0,0-.8-.5-1.1-.4-.2-3.7-1.8-7.3-3.7-14-7-24.2-10.9-31.9-12-2.2-.3-10.1-.6-12.9-.4ZM.2,79.3c0,.1,1.4.9,3.1,1.8,1.7.9,3.4,1.8,3.9,2.1.5.3,3.1,1.7,5.9,3.2,2.8,1.5,5.3,2.9,5.5,3,1.9,1.2,17.7,9.6,24.5,13,9.4,4.8,10.6,5.3,19.8,8.4,11.2,3.8,17.4,6.9,20.5,10,1.8,1.9,2.1,2.8,2.1,5.4s0,2.3-.6,3.3c-3.3,6.2-16.6,9.6-29.3,7.4-8.5-1.5-16.4-4.8-25.6-11-3.6-2.4-6.5-4.5-15.1-11-5.8-4.4-14.1-10.3-14.5-10.3-.5,0,0,.5,1.4,1.5,3.3,2.2,5.9,4.1,12.3,8.9,9.9,7.4,10.5,7.9,14.9,10.9,10,6.8,18.2,10.3,27.6,11.7,3.5.6,10.9.5,14.2,0,6.2-1.1,10.7-3.1,13.1-5.8,3.1-3.4,3-8.1-.3-11.4-3.4-3.4-9-6.1-22.3-10.6-7.1-2.4-8.2-2.9-16.4-7-7.7-3.9-12.5-6.4-25.7-13.6C9.3,83.7.6,79.1.3,79.1s-.1,0-.1.2ZM.2,89.7c0,.3,1.2,1,5.4,3.3,2.9,1.6,8.3,4.5,11.9,6.5,7.7,4.2,8.5,4.6,10.9,5.9,1,.5,2.4,1.3,3.1,1.7,2.7,1.4,12.4,6.3,15.2,7.6,1.6.8,3.9,1.7,5.2,2,8.4,2.5,10.7,3.3,12,4.6.9.8,1,1.6.4,2.5-.5.7-1.5,1.6-2.5,2.1-2.3,1.2-7.9.7-14.3-1.3-5.3-1.7-10.7-4.9-20.9-12.6-2.5-1.8-5.6-4.2-7-5.2-4.9-3.7-6.1-4.5-9.1-6.6-2.8-1.9-7.7-5.2-9.6-6.3-.8-.5-.8-.5-.8,0s.4.7,1.3,1.2c4.9,3,11.6,7.7,19.8,13.9,17,12.8,21.7,15.6,29.9,17.5,5.2,1.2,8.9,1.3,11,.2.7-.3,1.6-1,2.1-1.5,2.2-2.1,1.5-4-2-5.8-1.2-.6-4.7-1.8-7.3-2.5-1.1-.3-2.9-.8-3.9-1.1-3.1-1-16.7-7.9-29.1-14.6C-.4,88.9.2,89.2.2,89.7ZM202.7,114.3c-2.5.3-4.4.8-6.3,1.7-2,1-3.4,2.2-6.4,5.7-3.5,4.1-3.9,4.4-14.2,8.3-3.4,1.3-6.5,3-7.5,4-.5.5-1.2,1.5-1.5,2.2-.6,1.3-.7,1.5-.6,2.7,0,.7.4,1.9.7,2.7,1,2.4.9,3.3-1.8,10.6-1.3,3.5-2.1,5-3.3,6.2-1.3,1.3-2.8,2-7.2,3.3-2.2.6-5.4,1.6-7.2,2.2-6.6,2.1-9.5,4.1-14.4,9.9-2.7,3.2-3.8,4.3-5.4,5.5-2.6,1.9-2.9,2-5.9,2.2-11.1.6-23.5,2.4-30.7,4.5-5.5,1.6-9.1,3.6-10.3,5.7-.7,1.3-.8,2.8,0,4.2,1.3,2.6,6.2,6.2,10.2,7.5,2.6.8,3.7.9,7,.8,5.8-.3,7-.1,8.7,1.5,2.4,2.3,3.8,5.1,7.6,14.9,2,5,2.7,6.5,3.8,7.7,1.2,1.3,2.6,2,8.1,4.5,9.9,4.3,12.3,5.7,15.3,8.7,2.7,2.7,4,5,6.3,10.6,3.2,8.2,5.3,11.9,9.4,17.1,1.9,2.3,3,3.6,8,8.8,4.3,4.6,5.5,5.9,7.3,8.2,3.7,4.9,5.8,9.6,6.9,15.4.5,2.8.5,11,0,14.1-1.8,10.2-6.4,20.4-15.4,33.9-3.6,5.4-5.3,7.5-9.4,11.6-4.7,4.7-8.8,8.3-19,16.6-7.5,6.1-8.1,6.6-12.7,10.4-16.9,14.1-26.3,24.3-30.7,33.3-2.5,5.3-3.1,7.9-2.9,13.5.4,13.8,6.1,22.5,17.3,26.4,4.9,1.7,9.8,2.3,17.5,2.2,10.5-.2,20.6-1.8,37-6,6.5-1.6,6.9-1.7,19.5-5.2,19.8-5.4,27-6.9,33.2-6.9s4.5.3,7.3,1.5c5,2,8.6,4.3,16.5,10.5,7.1,5.6,10,7.6,13.6,9.4,6.2,3.1,12.4,3.9,19,2.6,9-1.8,19.5-8.1,28.9-17.3,6.2-6.1,10.7-11.8,14.3-18.1,3.4-6,5.8-13.4,6.5-20.5.4-3.6.2-10.5-.4-13.7-2.2-12.5-7.6-23.8-18.9-39.5-2.8-3.8-4.7-6.3-10.7-14.1-13.4-17.3-18-24-22.4-32.6-4.5-9-6.6-16.2-6.9-24.3-.4-11.1,3.4-22.4,10.6-31.6,2-2.5,6.5-6.9,9.4-9,8-6,17.5-9.8,27-10.8,2.9-.3,8.3-.1,10.9.3,13.2,2.4,21.9,11.1,24.6,24.5.3,1.4.6,3.7.8,5.1.3,3.1.1,9.6-.3,13.2-2,15.7-2.7,26.4-2.7,38.8,0,8.9.1,12,.8,18,3.2,27.5,14.8,45.7,35.6,55.8,7.1,3.5,14.8,5.9,22.6,7.1,4.1.6,13.1.7,16.9.1,11.7-1.8,21.6-6.8,30.4-15.3,10.9-10.5,18.6-25,22.3-42,1.4-6.7,2.1-13.1,2.1-20.4,0-10.5-1.3-18.5-4.6-28.4-7-21.1-19.5-41.1-38.9-62.4-1.1-1.3-2.2-2.4-2.3-2.5-.5-.5-7.5-7.6-9.9-10-21-20.5-50.4-41.2-82.8-58.5-1.8-.9-4-2.1-5-2.7-2.3-1.2-15.5-7.8-18.1-9-1.1-.5-4.7-2.2-8-3.8-31-14.7-47-20.9-66.2-25.9-14.2-3.7-17.2-4.4-22-5.1-4.6-.7-7.8-.8-10.9-.5ZM202.4,115.3c-3.4.4-6.2,1.5-8,3.1-.5.5-2.1,2.1-3.4,3.7-3.5,4.1-4.5,4.8-10.7,7.2-9.8,3.8-11.3,4.7-12.5,7.2-.6,1.3-.6,2.4.2,4.6,1,2.7.9,3.5-.7,8.2-3.2,9.4-4.2,10.7-9.9,12.5-1.1.4-3.5,1.1-5.3,1.6-10.2,2.9-12.5,4.3-18.3,11.1-3.2,3.7-4.3,4.8-6.8,6.4-1.8,1.2-1.9,1.2-6.1,1.4-5.2.2-14.5,1.3-20.3,2.4-12.5,2.3-19.3,5.4-19.3,8.9s6,7.6,11.3,9c1.5.4,2,.4,6.5.3,4.6-.1,4.8-.1,6,.3,3.4,1.3,5.7,4.9,9.8,15.6,2.4,6.2,3.2,7.7,4.3,8.8,1.3,1.2,2.1,1.6,8.6,4.5,7.1,3.1,8.4,3.7,10.9,5.4,2.6,1.8,4.8,3.9,6.3,6.1,1.5,2.2,2.2,3.6,4.2,8.6,4,10,7.1,14.7,14.9,22.8,4.2,4.4,6.4,6.8,8.1,8.8,6.1,7.5,8.6,14.1,8.9,23.2.4,12.8-4.2,25.2-16,42.9-3.8,5.7-5.6,7.9-10,12.3-4.3,4.3-8.9,8.3-19,16.5-13.3,10.9-17.3,14.2-22.2,18.6-15.3,13.9-22.3,24-23.4,33.7-.2,2.1,0,6.6.5,9.6,1.5,8.7,5.7,14.8,12.7,18.2,2.6,1.3,4.5,1.9,8.8,2.9,3.4.7,12.7,1,18.4.4,12.5-1.2,23.8-3.7,53.8-12,4.5-1.2,14.9-3.8,17.6-4.3,6.1-1.2,7.2-1.3,11.3-1.3h4s2.3.8,2.3.8c5.7,2,10.4,4.8,18.1,11,10.5,8.4,14.9,10.9,21.1,12.3,3,.7,7.6.6,11.1-.1,7.3-1.5,15.4-5.8,23.2-12.2,10.9-9,19.8-20.9,23.1-31,5.6-16.7,2.9-33.2-8.4-52-4.3-7.2-8.3-12.8-19.3-26.9-6.2-8-9.3-12.2-12.1-16.1-14-19.9-18.9-35.3-16.2-50.9,2.3-13.2,10.3-25.2,22.2-33.1,7.6-5.1,15.3-8,24.1-9.2,6.1-.8,13.4,0,18.4,2,11,4.4,17.4,13,19.5,26.3.6,4,.5,11.2-.2,17-1,8.3-1.8,16.5-2.3,23.7-.4,5.5-.4,22.2,0,26.4,1.9,22.2,8.1,37.6,19.5,49,7.6,7.6,16.7,12.6,29,16.3,9.7,2.9,20.2,3.4,29.3,1.5,10.4-2.1,19.7-7.4,27.9-15.8,8.5-8.7,14.7-19.5,18.7-32.8,4.8-15.7,5.3-33.4,1.5-48.5-3.5-14.1-10.9-29.6-21.1-44.5-6.1-8.9-15.1-19.9-23.5-28.6-10.6-11-20.8-20.1-33.1-29.7-15.2-11.8-35.1-24.7-53.5-34.7-12.8-6.9-21.2-11.1-39.9-19.9-28.1-13.2-43-18.9-62.5-24-13.1-3.4-17.3-4.4-22.1-5-3.2-.4-7.9-.6-10-.3ZM208.7,135.8c-5,.6-9.4,2.3-13.4,5.1-3.1,2.1-5.5,4.3-11.1,10.3-12.5,13.2-14.9,15.1-27,20.9-12.9,6.2-16.4,8.3-19.9,12-6.4,6.7-8.5,16.2-5.6,25.1.7,2.1,2.7,6.2,4.1,8.2,4.7,7,11.2,13.4,24.5,24.1,10.7,8.6,16.4,13.7,19.8,17.7,4.6,5.4,8.6,13.7,10.7,21.8.8,3.3,1.5,7.4,1.9,11.3.4,4.5.3,13.9-.2,18.3-2,16.7-8,32.3-16.5,42.9-4.1,5.1-10.3,11.3-22.7,22.7-7.6,7.1-9.3,8.7-16,15.4-5.2,5.2-7.3,7.3-10.5,11-1.3,1.4-4.3,5.3-5.7,7.2-5.2,7.2-7.7,13.3-8.2,20.1-.6,7.5,1.8,11.7,7.7,13.3,1.9.5,8.1.5,11.6,0,5.5-.8,12.7-2.6,24.2-5.9,22.8-6.6,32.9-8.9,43.6-9.8,3.1-.3,9.9-.3,12.4,0,9.5,1,15.3,3.8,27.3,13.1,10.6,8.2,15.4,10.7,22.6,11.6,6.8.9,14.6-1.3,21.9-6.1,9.3-6.2,16.6-15.4,19.7-24.9,1.3-3.8,1.5-5.7,1.5-10.1,0-15.2-5.1-29.8-16.5-47.7-3.2-5.1-5.8-8.8-15.7-22.6-12.9-18.1-17.8-26-21.1-34.1-1.9-4.8-2.8-8.5-4.1-16.8-1.6-10.3-2.2-19.1-1.9-25.6.4-7,1.4-9.9,5-13.3,2.4-2.3,4.8-3.8,10.4-6.5,2.7-1.3,6.4-3.1,8.2-4,4.5-2.2,6.4-3.5,10.7-7.4,6.7-6,9.1-7.7,12-8.2.7-.1,3.6-.3,6.5-.4,8.1-.3,12.4-.9,18.1-2.2,4-.9,5.2-1,6.8-.2,2,1,9.2,6.8,12,9.8,8.2,8.7,12.7,19.9,14.6,36.6.9,7.8,1,10.9.9,31.6,0,19.9,0,26.1.7,32.7,1.5,16.4,5.7,28,13.3,36.7,1.1,1.2,2.2,2.5,2.6,2.8.3.3,1.3,1.1,2.1,1.8,6.2,5.4,15.6,9.7,25.7,11.7,4.2.8,6.8,1.1,11.1,1.1,5.5,0,9.5-.6,14.3-2.2,9.1-3,16.5-8.7,22.7-17.3,6.2-8.7,10.4-20,12.2-32.8.6-4.1.8-14,.4-18.4-.9-11.2-3.7-21.2-9.3-34.1-13.5-30.8-36.1-56.6-73.2-83.4-10.7-7.8-28.6-19.7-38.6-25.7-22.7-13.7-47.9-23.7-76-30.1-10.8-2.5-30-5.8-39.9-7-2.4-.3-8.7-.4-10.4-.2ZM209.1,136.5c-6.2.8-11.3,3.1-16.6,7.5-.9.8-3.8,3.6-6.5,6.4-6.7,7-11.1,11.4-13.3,13.3-3.4,3-6.9,5-14.7,8.9-4,1.9-8,3.9-9.1,4.5-9.5,4.9-14.2,9.6-16.6,16.7-2.6,7.6-1.2,15.5,4.1,23.5,2.4,3.7,4.5,6.2,8.8,10.4,4.1,4.1,8.6,7.9,18.2,15.7,1.8,1.5,3.8,3.1,4.5,3.6.6.5,1.4,1.1,1.7,1.4,4.5,3.8,10.5,9.7,12.6,12.5,10.6,14.3,14.2,35.9,9.6,58.5-2.7,13.4-8.1,25.9-15,34.6-4,5-9.3,10.4-23,23.1-10.2,9.5-20.5,19.6-24.4,24-8.5,9.6-13.3,17.3-14.8,23.7-1.8,7.4-1.2,12.6,1.6,15.4,2.1,2.1,4.6,2.9,9.5,2.9,3.7,0,5.3-.2,10.1-1.1,5.4-1,9-2,24.3-6.3,10.7-3,17.7-4.9,23-6,15.3-3.3,26.7-3.8,35.7-1.6,6.3,1.6,11.2,4.3,20,11,8.1,6.2,9.8,7.4,13,9.1,2.5,1.3,4.6,2.2,7.3,2.9,2,.5,2.5.6,6.2.6,4.2,0,4.4,0,8.2-1.1,5.1-1.4,11-4.9,16.2-9.6,5.7-5.1,10.9-12.6,13.2-19.2,1.3-3.8,1.6-5.6,1.6-10.8,0-13.8-4.3-27-13.9-43.1-3.4-5.6-8.6-13.3-17.8-26-17-23.5-22-32.7-24.3-44.6-.9-4.3-2-12.3-2.5-17-1.4-14.7-.8-22.6,2.1-26.9,2.3-3.3,5.7-5.8,13.2-9.5,2.8-1.4,6.5-3.2,8.2-4,4-2,6.2-3.5,9.6-6.4,5.8-5.2,7.8-6.8,9.7-7.9,2-1.1,3.3-1.4,8.1-1.6,10.4-.5,13.6-.9,20.3-2.4,1.8-.4,3.7-.7,4.3-.7,2.1,0,3.7,1,9,5.3,5.4,4.4,8.1,7.3,10.9,11.5,5.9,9,8.8,18.9,10.3,35.5.3,3.2.3,7.3.4,26.7,0,22.9.2,27.9.8,34.4,1.8,17,6.5,28.7,15.1,37.2,5.6,5.5,12.8,9.6,21.8,12.3,6,1.8,10.6,2.5,16.8,2.5,4.9,0,7.3-.3,11.5-1.4,12.8-3.3,23.4-12.7,30.2-26.9,6.9-14.5,9.2-32.7,6.1-50-2.4-13.9-10.2-32.2-20.1-47.6-15.3-23.9-36.8-44.5-70.7-67.8-9.1-6.2-25.1-16.7-30.2-19.6-1.1-.7-2.5-1.5-3-1.8-4.9-2.9-13.9-7.6-21.2-10.9-24.5-11-49.7-17.8-85.6-23-6.4-.9-11.4-1.2-14.6-.8ZM531.8,145.8c-1.1.1-4,.7-4.8.9-8.4,2.5-18,8.4-27.8,17.2-2.4,2.1-10.2,10.1-12.4,12.6-9.7,11.2-17.2,22.5-20.5,31.3-2.9,7.5-3.4,15.9-1.6,25.2,1.4,7.1,5,17.2,10,27.9,3.5,7.4,6.2,13.5,7.8,17.2,5.7,13.2,8.5,24.1,7.9,31.3-.7,7.9-3.9,19.1-9.8,33.7-2.5,6.1-3.7,8.9-7.7,17.7-1.1,2.3-5.3,10.8-6.8,13.6-3.9,7.3-4.6,9.1-4,11.1.5,2,2.4,2.9,5.8,2.9s7-.7,22.3-4.1c18.6-4.2,31.3-5.3,41.5-3.5,7.7,1.3,13.7,3.9,18.7,8.2,4.8,4.1,8.1,9.8,13.1,22.4,3.8,9.5,5.8,13.6,8.8,17.5,2.3,3,5.9,5.9,8.3,6.7,3.5,1.2,9.5,1,14.6-.3,1.5-.4,1.8-.6,1.8-1.3s0-.5-.3-.3c-.4.3-3.4,1-6,1.4-3.1.5-7.2.3-9.4-.4-3.6-1.2-7.9-5.4-11-10.7-1.6-2.9-2.9-5.8-6-13.3-4.4-10.9-6.9-15.6-10.5-19.8-4.1-4.7-10.4-8.4-17.4-10.2-5.5-1.4-12.3-2-18.8-1.6-9.1.5-16.6,1.7-31.8,5.2-11.3,2.6-14.6,3.1-17.9,3.1-2.3,0-3.3-.2-4.2-1-1.3-1.1-1-3.3,1.2-7.6,3.4-6.6,8.6-17,10.3-20.9,8.8-19.3,14.4-35.4,15.8-45.6.7-4.9.3-10.1-1.2-16.2-2-8-4.8-15.2-11.9-30.4-8.6-18.4-11.7-27.4-13-37.3-.3-2.5-.3-8.9,0-11.2.3-2.1,1.1-5.7,1.7-7.4,4-11.4,14.8-27,27.8-39.9,12.6-12.6,24.7-20.4,35-22.7,1.3-.3,2.6-.4,6.5-.3,4.3,0,5.3,0,7.9.6,8.8,1.6,17.6,4.5,29.9,9.9,3.7,1.6,15.1,7.3,19.7,9.9,1.8,1,3.3,1.7,3.4,1.7.3-.2.2-1-.1-1.1-.1,0-2-1-4.1-2.1-19-10.5-36.5-17.3-49.6-19.4-2.5-.4-9.5-.7-11.2-.5ZM216,149.5c-3.1.3-6.8,1.3-9.5,2.7-4.7,2.4-6.7,4-17.5,15.3-7.7,8-10.5,10.2-20.9,16.7-3.7,2.3-5.7,3.9-8.2,6.4-5.8,5.8-9,11.7-9,16.9s3.6,11.3,12.3,18.1c2.3,1.8,4.7,3.5,10.4,7.4,10.1,7,15.1,11.1,18.3,15.4,2.9,3.8,7.4,12,9.9,17.8,9,21.4,9.8,45,2.1,67.8-3.1,9.2-7.4,18-12.8,26.1-4.2,6.3-10.1,12.7-20.1,21.8-3.1,2.8-4.7,4.3-8.1,7.5-3.8,3.5-10.9,10.6-13.2,13.2-8.3,9.4-13.1,18.3-11.9,22.1.8,2.3,3.7,3,9.2,2.4,3.8-.5,7.7-1.3,19.2-4.3,5.3-1.4,11.7-2.9,14.1-3.5,21.4-5,36-5.5,47-1.5,4.8,1.7,8.6,4.1,17.6,11.1,9.5,7.3,14.9,9.7,22.2,9.7,4.3,0,7.8-.9,11.8-2.9,6.8-3.5,11.9-9.4,14.2-16.5,1.8-5.4,2-11.9.6-18.2-2-9.1-5.4-15.3-20.5-37.6-11.3-16.7-16.2-24.2-20.7-31.6-12.8-20.8-19.3-37.3-20.8-52.3-.4-4.2-.2-10.9.5-14.9,2.6-14.7,10.9-28,25.2-40.2,19.4-16.6,45.5-23.4,67.2-17.7,5.1,1.4,10.7,3.8,14.7,6.4,13.2,8.6,21,22.2,23.3,40.6.5,4.1.5,14.9-.1,27.1-1.3,27.1-1,39.5,1,52.1,2.1,12.8,6.2,22.2,12.4,28.7,3.1,3.2,6.3,5.5,10.4,7.3,10.4,4.6,21.6,5.7,29.9,2.9,4.5-1.5,8.3-3.8,11.9-7.2,7.6-7.3,12.4-18.2,14.2-32.5.4-3.4.4-16.4-.1-19.9-.8-5.7-2.1-11.8-3.5-16.3-5.7-18-13.7-32.9-25.4-47.5-1.3-1.6-2.6-3.2-2.8-3.4s-1.4-1.5-2.6-2.9c-2.6-3-9.3-9.7-12.7-12.8-15.1-13.7-33.4-26.6-59.5-42-32.4-19.1-61.6-29.7-98.9-35.8-12.6-2.1-16.5-2.4-20.7-2.1ZM216,150c-3.8.4-6.6,1.2-9.8,2.8-4.2,2.1-6.8,4.4-14.5,12.5-9,9.5-12.8,12.7-21.1,17.8-7.6,4.7-10.9,7.5-14.8,13-1.5,2.1-3.4,5.8-3.9,7.6-1.1,4.2-.3,8.3,2.4,12.3,1.5,2.2,5.9,6.6,9.3,9.2,1.5,1.1,4.9,3.6,7.5,5.4,14.2,9.8,18.7,13.5,22.2,18.7,6.6,9.8,11.9,21.9,14.4,33,2.1,9.3,2.7,18,2,27.2-1.1,13.6-4.4,25.5-10.5,37.9-6.4,13-12.8,21.1-25.7,33.1-.1.1-2,1.8-4.1,3.7-7.6,7-9.7,9-13.6,12.9-11.4,11.4-18.4,22.3-17.5,27,.4,2.2,3.1,3.1,7.7,2.6,4-.4,11.7-2.1,20.8-4.6,9.9-2.7,19-4.7,26.1-5.9,7.3-1.2,10.2-1.5,17.2-1.5,7,0,9,.2,13.7,1.4,6.3,1.6,10.6,4,19.5,10.8,8.6,6.6,11.5,8.4,16,9.9,9,3,19.1.4,26.4-6.8,4.7-4.6,7.3-10,8.3-16.8,1.1-7.7-.9-16.7-5.9-26-2-3.7-5.8-9.7-17.5-27.1-6.2-9.3-12.3-18.4-13.5-20.4-15-23.4-22.3-39.3-25-54.6-.8-4.5-1-7-1-11.3,0-15.5,5.8-29.2,18-42.3,14.4-15.6,33.4-25.3,53.2-27.3,3.2-.3,9.7-.3,12.9,0,7.1.7,14.4,2.8,20.3,5.9,15.6,8.1,25.2,22.9,27.6,42.8.7,6.1.8,10.7.1,23.9-1.2,24.2-1.1,41.7.3,52,1.8,13,4.7,21.6,10,28.9,1.7,2.4,5.4,6.1,7.8,7.7,5.1,3.4,13.4,6.3,20.6,7.1,3.3.4,8.5.1,11.2-.5,6.3-1.5,10.8-3.9,15.3-8.5,5.5-5.5,9.2-12.7,11.7-22.2,1.5-5.7,2.2-11.8,2.2-18.7,0-12.9-2.3-23.4-8.4-38.8-3.2-8.1-9.6-19.7-14.7-26.9-3.5-4.9-6.7-8.9-10.2-13-3.2-3.7-13.1-13.6-17.1-17-15.1-13.1-32.8-25.4-57.8-40.1-24.8-14.6-47.9-24-74.3-30.4-9.4-2.3-18.1-3.9-30.1-5.7-7.5-1.1-10.1-1.3-13.6-.9ZM220.6,159.3c-7.8,1.5-14.9,6-28.2,18.2-4,3.7-5.9,5.3-12.3,10.2-10.2,7.9-13.4,11.3-14.5,15.5-1.1,4.2.7,8.5,5.4,13.2,2.6,2.6,3.9,3.7,8.2,6.8,4.9,3.6,7,5.4,11.1,9.5,6.9,6.9,12.8,14.6,20.4,26.8,6.5,10.5,8.4,12.8,10.2,12.8s1.5-.9,1.9-2.2c.2-.5.6-2.4,1-4.2,4.8-23.9,13.9-40.3,28.4-51.1,3.1-2.3,5.9-4,10.4-6.2,6.5-3.2,12.6-5.6,20.5-7.8,4.5-1.3,5.3-1.6,9.2-4.3,1.6-1.1,3.7-2.3,4.7-2.8,1.6-.8,1.9-.8,3.4-.8,1.9,0,2.3.2,4.6,1.9,1.8,1.3,2.7,1.8,4,1.8,1.8,0,2.9-.7,4.3-2.7,1-1.4,2-1.9,3.5-1.8,1.7.2,2.7.9,4.8,3.6,2.5,3.3,4.2,4.3,7.3,4.3,1.5,0,1.5,0,2.2-.7.6-.6.6-.8.5-1.7-.2-1.3-1-2.4-2.7-3.7-1.6-1.2-5.4-3.2-8.9-4.7-1.2-.5-4.7-2.2-7.6-3.6-12.6-6.3-27.9-12.6-40.3-16.7-13.5-4.4-24.1-7-37.3-9-4.5-.7-11.3-.9-13.9-.4ZM532.7,159.1c-3.9.6-8.4,2.7-13.9,6.4-11.7,7.9-25.6,22.5-34.4,36.3-2.9,4.6-5.7,10.3-6.6,13.7-.8,3.2-1,8-.5,12,1.1,8.2,4.1,16.4,12.1,33.4.6,1.4,1.2,2.5,1.2,2.5s.6,1.5,1.4,3.1c7.2,15.5,10.6,26.4,11.7,37,.2,2.1.2,2.9,0,5.5-1.5,13-7,34.2-13.8,52.6-1.4,4-1.5,4.7-.4,5.8,1.4,1.4,2.4,1.6,8.3,1.5,2.7,0,7-.2,9.4-.4,15.7-1.2,26.3-.8,35.1,1.4,6.6,1.6,11.9,4.3,16.5,8.3,7.9,6.9,10.5,10.8,16.9,25.1,4.4,10,6.9,13.9,10.4,16.2,2.3,1.6,5.4,2.1,8.6,1.5,1.9-.4,2.3-.6,2.3-1.3,0-.3,0-.3-.2-.2-.3.5-2.8,1-4.8,1-3.2,0-5.4-1-8-3.8-2.4-2.5-4.7-6.8-8-14.5-3.9-9.2-7.3-15.1-11.1-19.3-2.3-2.6-7.2-6.8-10-8.6-5.7-3.6-12.7-5.8-22.5-6.9-3.9-.4-17.1-.3-25.1.2-14.1,1-18,.5-17.9-2.2,0-.4.8-2.9,1.7-5.4,6.4-18,11.6-37.7,13.1-49.7.4-3.3.4-5.9,0-9.1-1.4-10.5-4.8-20.8-12.5-37.3-8-17.2-10.5-23.4-12.3-30-1.2-4.5-1.6-7.2-1.6-11.2,0-5.5.8-8.7,3.6-14.3,4.6-9.2,12.4-19.4,22.3-29.3,10.1-10,19-16.4,26.3-18.7,2.1-.7,2.2-.7,5.9-.7,3.9,0,5.1.1,9.5,1.2,12.4,2.9,29.6,10.4,48,21.1,1.7,1,3.2,1.8,3.3,1.8.1,0,.2-.2.3-.5s0-.4,0-.4c0,0-.4,0-.6-.1-.2-.2-1.7-1-3.1-1.8-19-10.9-37.5-18.9-49-21.2-4.3-.8-9.1-1.2-11.3-.8ZM222.4,159.5c-7.5,1-14.1,4.7-24.5,13.7-1.7,1.5-4,3.5-5.1,4.6-2.6,2.4-6.8,5.9-12.6,10.4-7.9,6.1-10.9,9-12.7,12-4.2,6.9-.6,13.6,12.4,22.8,3.8,2.7,6.7,5.2,10.8,9.3,7.4,7.4,12.7,14.4,21.5,28.5,5,8,7.1,10.7,8.4,11,1.2.3,1.8-.8,2.7-5.6,2.3-11.3,5-19.6,8.9-27.4,4.7-9.5,10.6-17.1,17.9-22.9,8-6.4,19.1-11.7,33.5-15.8,3.9-1.1,4.8-1.5,8.6-4.1,4.1-2.7,5.9-3.5,8-3.7,2-.1,2.7.2,5.4,2.1,2.1,1.5,3.1,1.8,4.6,1.4,1-.3,1.7-.9,2.9-2.6,1-1.3,1.8-1.8,3.4-1.8s3.1.8,5,3.2c2.6,3.5,3.7,4.3,6.3,4.7,2.2.4,3.4-.2,3.3-1.6,0-2.4-3.2-4.7-11-8.1-1.5-.6-4.9-2.3-7.7-3.7-2.7-1.4-7-3.4-9.5-4.5-26-11.8-47.6-18.4-70.1-21.5-2.3-.3-8.9-.6-10.3-.4ZM.2,168.6c0,.4.3.7,1.9,1.6,31.9,18.1,68.9,46.7,87.8,67.7,6.5,7.2,11.4,14.5,12.4,18.5,1.9,7-1.6,15.3-11.4,27.5-2.5,3.2-9.9,11.7-17.1,19.6-18,20.1-28.2,35.3-33.9,50.6-2.7,7.2-4,13.5-4.6,22.1-.7,9.5-1.5,14.8-3.4,21.5-2.9,10.2-7.7,18.6-14.3,25.1-4.3,4.3-9.9,7.9-15.4,9.9-1.6.6-1.9.8-1.9,1.2v.5c0,0,1.4-.5,1.4-.5,6.2-2.1,12-5.8,17-10.8,10.5-10.5,16.4-26,17.6-46.2.2-4.1.7-7.8,1.2-10.4,2.1-10.6,6.6-21.4,13.6-32.3,6.2-9.8,13.1-18.5,26.7-33.7,13.3-15,18.1-20.9,21.8-27.1,4.5-7.6,5.5-13.7,3.3-19.2-5-12.6-28.9-36.1-59.7-58.6-10.3-7.6-21.3-14.9-31.8-21.4-2.9-1.8-10.7-6.4-10.9-6.4s-.1.2-.1.5ZM533.7,168.5c-8.7,1.4-27.5,18.3-39.3,35.2-3.1,4.5-5.7,9.2-6.9,12.6-1.8,5.1-1.2,11.5,1.8,20.3,1.8,5.2,3.2,8.5,9.1,21.2,8.4,18.1,11.4,26.2,13.4,36.3,1,5.1,1.3,7.5,1.4,13.1.2,8-.6,13.4-3.1,22.8-1.8,6.6-2.3,9.1-2.4,12.6-.1,3.3,0,4.7,1,6.5,1.3,2.6,3.8,3.9,9.1,4.7,1.2.2,3.1.4,4.2.4,1.1,0,2.9.2,4.1.3,1.1.1,4.8.3,8.1.4,10.8.4,16.2,1.2,22.1,3.2,4,1.4,8.8,4,12.2,6.7,3.8,3.1,6.3,5.9,8.8,10.1,2.5,4.2,3.5,6.6,9.1,20.5,3,7.6,5.2,11.3,7.5,12.6,1.2.7,2.5,1,2.9.7.5-.4.3-.5-.5-.4-2.2.2-4.8-2.5-7.1-7.5-.5-1.2-1.9-4.5-3-7.3-4.6-11.8-6.8-16.5-9.6-20.8-4.3-6.5-11.2-11.8-19.2-14.8-6-2.2-12.2-3.1-24.1-3.5-7.4-.2-15.7-1-18.3-1.7-5.1-1.3-7-4.3-6.7-10.3.2-3.5.8-6.7,2.6-13.1,1.7-6.1,2.6-11.7,2.9-17.3.6-12.9-2.2-25.4-9.4-42.4-1.5-3.5-2.6-6-7.6-16.8-6.6-14.2-8.9-21-9.6-27.9-.5-4.6.3-8,3-13.2,7.4-14.4,26.8-34.8,39-41.1,1.1-.6,2.6-1.2,3.3-1.4,8.5-2.6,33.7,7.1,61.2,23.6,1.6,1,3.1,1.8,3.2,1.8s.2-.1.2-.3,0-.3-.2-.3-2-1.1-4.3-2.4c-10.5-6.2-22.8-12.6-32-16.4-9-3.8-16.5-6-22.1-6.7-2.9-.3-3.1-.3-4.8,0ZM227.3,170c-4.7.4-9,2.1-14.4,5.6-3.7,2.4-6.9,4.8-12.5,9.5-1.1.9-3.8,3.1-6,4.8-9.5,7.3-12.5,10.3-13.7,13.8-1.2,3.7.6,7.5,5.5,11.3,1.9,1.5,3.6,2.6,6.9,4.5,5.3,3,9.2,6.7,13.4,12.6,1.4,2,3.7,5.7,4.9,7.9,4.4,8.1,5.9,9.9,7.3,9.6,1.1-.3,1.5-1.3,3.3-7.3,3.1-10.9,10.9-23,20-31,4.7-4.2,8.8-6.9,16.6-10.8,10.1-5.1,17.9-7.9,28.1-10.2,5.6-1.3,6.1-1.5,6.1-2.6,0-2.3-12.8-8.4-25.7-12.1-10-2.9-19.9-4.6-31.7-5.4-5-.3-5.3-.3-8.1,0ZM225.4,170.7c-6.2,1.1-13.1,5.2-23.6,13.9-1.9,1.6-5.2,4.2-7.4,5.9-5.4,4.1-7.2,5.6-9.3,7.7-2,2-2.9,3.2-3.7,5-.8,1.7-.8,3.8,0,5.5,1.5,3.2,5,6.4,11.1,9.9,3.2,1.8,4.6,2.8,6.6,4.5,4.6,4,8.2,8.7,12.9,16.9,3.1,5.5,3.8,6.5,4.5,7.6.9,1.2,1.7,1.7,2.3,1.4.6-.3,1.4-2.2,2.1-4.9,3.4-13,11.7-25.8,22.5-34.8,4.5-3.8,9.1-6.6,17.1-10.4,9.5-4.6,16.7-7.1,27.8-9.6,4.9-1.1,5.1-1.6,1.7-3.8-6.3-4.1-18.8-8.8-30.5-11.5-11.7-2.8-28.4-4.4-34.2-3.4ZM230.7,178.7c-3.5.3-7.4,1.7-13.3,4.7-10.8,5.5-20.5,12.9-24,18.4-1.1,1.7-1.4,3.1-1.1,4.4.7,2.8,2,3.9,7.7,6.9,6.1,3.1,8.2,5,10.3,9.1,1.4,2.8,2.1,3.7,3.3,4.3,1,.5,2.6.6,3.7.1,3-1.3,6.6-5.6,10.6-12.7,2.8-5,4.3-7,8-10.6,6.6-6.5,14.2-10.6,25.9-14,1.5-.4,3.5-1,4.3-1.1,1.9-.4,2.4-.8,2.4-1.6,0-2.3-8-5.4-17.5-6.9-5.8-.9-15.1-1.3-20.3-.8ZM537.4,178.7c-4,.4-8,2-11.3,4.4-2,1.5-11.7,11.1-15.2,15-6.8,7.6-11,13.4-13.4,18.3-1.6,3.2-1.8,3.9-1.8,6.5,0,5.5,2.6,13.1,9.9,28.7,6.1,12.9,8.6,18.9,10.9,25.5,2.9,8.3,4.7,15.7,5.6,23.8.3,2.9.3,11.1,0,14.2-.3,2.4-1.1,7.8-1.5,9.6-.1.5-.5,2.5-1,4.5-.6,2.8-.7,3.8-.6,4.9.3,3.7,2.2,6.5,4.9,7.3.4.1,2.6.4,4.8.6,13.7,1.3,20.5,2.8,28.6,6,14.8,5.9,25.8,16,32.6,30.2,1.6,3.3,2.5,4.4,3.8,5,1.4.5,3,.2,3-.6,0,0-.3,0-.6.2-.3.2-.8.3-1.1.3-.7,0-2.1-.7-2.7-1.3-.3-.3-1.4-2.3-2.5-4.6-3.1-6.3-6.1-10.6-10.5-15-8.5-8.8-19.6-14.9-33-18-4.8-1.1-9.9-1.9-17.2-2.5-3.2-.3-4.8-.5-5.6-.8-2.2-.8-3.7-3.1-4.2-6.2-.2-1.5-.2-1.8.2-3.6,4.1-17.3,4.1-28.7.2-44.1-2.1-8.4-5.6-17.2-12.4-32-4.3-9.3-5.9-12.8-7.3-16.2-2.7-6.7-4-11.3-4.2-15-.1-2.2,0-2.5.4-4.1,1.7-5.1,6.8-12.4,15-21.5,4-4.5,12.5-12.9,14.7-14.5,2.3-1.7,5-3.1,7.6-3.8,2.4-.7,6.9-.9,9.6-.5,7,1,21.4,7.4,37.5,16.7,4.2,2.4,13.6,8.1,15,9.1.7.5,1,.5,1,0s0-.3-.1-.2c0,0-1.6-.8-3.5-2-21.1-13.3-42.2-23.4-50.4-24.1-3-.3-3.6-.3-5.5,0ZM229.8,179.5c-9.8,1.6-29.9,14.1-35.3,22.1-1.6,2.3-1.8,3.7-1,5.5.8,1.8,2.2,2.8,7.1,5.3,5.8,2.9,8.4,5.2,10.2,8.9,1.4,2.8,2,3.7,3.1,4.3,1.2.7,2.2.7,3.6,0,2.9-1.5,5.8-5.1,10.7-13.6.8-1.4,2.1-3.4,2.9-4.5,1.9-2.5,6.5-7.2,9.3-9.2,6.5-4.8,14.6-8.3,25.2-11,1.1-.3,2.1-.6,2.2-.7,1-1-3.8-3.4-9.7-4.9-6.7-1.7-10.8-2.2-19.9-2.3-4.1,0-7.9,0-8.4,0ZM.2,183.9c0,.3.5.7,1.5,1.3,9.8,5.8,23.6,15,34.2,23,14.2,10.6,29.9,24.2,42.5,36.8,5.7,5.7,7.5,8.8,7.7,13.3.2,4.4-1.1,8.5-4.7,14.4-3.4,5.7-7.1,10.4-16.7,21.4-5.9,6.8-8.5,9.8-12.1,14.2-16.4,20.2-25.4,37.3-28.9,54.7-.8,4.2-1.2,7-1.6,12.8-.9,12.9-2.6,21.1-6.1,28.6-1.4,3-3.9,6.8-5.9,9-2.4,2.6-5.9,4.9-9,6.1-.7.3-1,.5-1,.8s0,.4,0,.4c.2,0,3.3-1.4,4.3-1.9,2.8-1.6,6-4.5,8.3-7.4,5.8-7.7,9.2-19.5,10.1-35.4.2-3.6.5-6.6.8-8.3,2.1-13.3,6.6-25,14.6-38,6.5-10.6,14.1-20.4,29.6-38.1,11.1-12.6,16.7-21.1,18.6-28,.7-2.4.7-6.7,0-8.7-1.2-3.6-2.8-5.9-7.8-10.8-20.8-20.7-43.4-38.7-67.7-54.1-4.9-3.1-10.5-6.5-10.6-6.5s-.1.2-.1.4ZM241.7,184.3c-8.5,1.1-20.8,5.7-28.4,10.7-2.1,1.4-3.1,2.1-5,3.7-.9.8-2.6,3-3,4.1-.9,2.2-.3,3.9,2,5.8,6.1,5.1,10.2,6.1,13.5,3.4,1.5-1.2,2.8-3,4.8-6.4,2.2-3.8,3-4.9,5-7,3.7-3.9,8.5-7,16.5-10.5,3.3-1.4,4.1-1.9,4.1-2.5s-.8-1-2.8-1.2c-2.2-.3-4.6-.3-6.6,0ZM240.3,185.6c-11.5,2.1-25.8,8.5-31.5,14.2-2.6,2.6-3.3,4.5-2.5,6.3.6,1.2,4.7,4.3,7.2,5.5,4.3,2,6.9.8,10.4-5.2.6-1.1,1.2-2,1.2-2s.5-.9,1-1.8c4-6.4,9.8-10.7,20.8-15.6,2.4-1,2.9-1.3,2.6-1.5-.2-.1-1.9-.2-3.7-.3-2.7,0-3.8,0-5.6.3ZM537,188.4c-2.8.6-4.9,1.7-6.9,3.5-7.1,6.6-9.3,8.6-11.9,11.4-5.8,5.9-9.7,11.4-11.2,15.7-.8,2.3-1.1,4.1-.9,7.4.2,4.8,1.1,7.5,5.8,17,2.7,5.5,5.3,11,8,17,7.1,16.1,10.5,28,11.7,41.2.3,3,0,5.9-1.2,12.4-.4,2.2-.8,4.8-.9,5.9-.7,5.8.2,9.6,2.8,11.9,2,1.9,2.9,2.2,13.9,4.7,12.4,2.9,18,4.7,24.4,8,4.7,2.4,7.7,4.5,12.6,8.7,4.1,3.6,6.2,4.4,8.4,3.3,1.7-.9,3-3.3,4.7-9,1.2-4.1.8-4.2-.5,0-1.5,4.8-1.9,5.7-2.8,7.1-.9,1.4-2.2,2.1-3.4,1.9-1.6-.3-3.8-1.6-6-3.6-4.3-4.1-10.2-7.9-16.1-10.5-5.5-2.4-10.1-3.8-26.5-7.7-4.7-1.1-6.5-1.8-8-3-2.5-2-3.6-6-3-11,.1-1.3.7-4.7,1.2-7.8,1.4-8.2,1.4-9.9.2-17.9-1.8-11.4-5.4-22.6-12.3-37.7-3.5-7.8-3.7-8-6.8-14.3-3.3-6.7-4.3-9-5.2-12.3-1.1-4.2-.8-8.5.7-12.3,1.1-2.8,4.3-7.5,7.6-11.2,2-2.3,7-7.3,10.7-10.7,1.5-1.4,3.3-3,3.9-3.6,4.3-4.1,9.4-5.1,17-3.6,11.3,2.3,26.7,10.5,46.9,25,1.6,1.2,3,2.1,3.1,2,.2-.2.1-.7,0-.6,0,0-2-1.3-4.3-2.9-19.6-13.9-33.6-21.3-45.2-23.9-3.1-.7-8.1-.9-10.3-.4ZM.3,194.8c0,.1,1.7,1.2,3.6,2.5,21.3,13.3,40.4,28.1,59.2,45.6,5,4.7,7.1,6.9,8.9,9.7,3.5,5.4,4.1,10.2,1.9,14.9-1.1,2.4-4.1,6.6-8.2,11.6-1.3,1.5-7.9,9.2-8.1,9.4,0,0-2.1,2.4-4.5,5.2-14.6,17-22.6,28.4-28.9,41.2-2.9,5.7-4.1,8.6-6,14.1-3,8.8-4.4,16.3-5.1,26.7-.6,10.1-1.4,15.5-3.2,21-1.9,5.9-5.3,10.4-8.8,11.6-.7.2-1.1.6-.6.6,1,0,3.2-1.4,4.7-2.8,5-5,7.5-14.1,8.5-31.1.4-6.8,1.2-12,2.6-17.9,3.3-13.3,9.9-27,19.6-40.9,6-8.6,11.8-15.7,24.7-30.5,6.8-7.8,12-14.5,13.5-17.6,2.2-4.5,2.2-8.9-.2-13.6-1.5-2.8-3.1-4.9-6.6-8.5-11.1-11.2-27.9-25.2-44-36.6-7-5-22.3-15-22.9-15s0,.1,0,.2ZM546.7,201.1c-3.7.7-8.3,2.6-12.2,5.2-3.5,2.4-7.8,6.8-9.9,10.3-3.3,5.4-4.8,12.1-4.2,18.1.4,4.4,1.3,7.3,3.7,12.5,7.9,16.9,12.1,28.1,14.6,39.3.6,2.8,1.4,7.1,1.9,11.2.4,2.9.3,9-.1,13.3-.7,6.5-.2,10.3,1.8,13.1,1.2,1.6,2.2,2.4,4.2,3.4,2.2,1.1,4.5,1.7,9.4,2.6,8.3,1.5,9,1.7,15.1,4.6,6,2.9,8.3,3.6,11.2,3.8,1.9,0,2.4,0,3.5-.4,2.6-.9,4.5-2.5,6.5-5.6,1.8-2.7,4.8-9.4,4.8-10.6,0-.4-.5.5-1.2,2.3-3.2,7.7-5.7,11.3-9.1,12.9-2,.9-3.8,1.1-6.4.6-2.3-.5-4.4-1.3-9.5-3.7-5.9-2.8-5.6-2.7-16.8-4.8-8-1.5-11.5-3.8-12.9-8.6-.6-1.9-.6-6.8,0-11.4,1-8.4-.6-19.7-4.4-32.1-2.6-8.4-5.6-16-12.5-31-2.6-5.6-3.4-9.2-3.4-14.1,0-11.5,7-22.1,18.1-27.7,10.2-5.1,19.9-3.9,32.5,4.2,4.3,2.7,6.9,4.7,16.8,12.8,4.9,4,8.4,6.6,8.7,6.3.1-.1,0-.3-.1-.4-.8-.4-5.6-4.2-8.9-6.9-10-8.2-14.1-11.2-19.3-14.1-3.9-2.3-8.3-4-12.2-4.9-2.2-.5-7.5-.6-9.7-.2ZM.2,205.6c0,.1,2.2,1.7,4.9,3.5,15.1,9.9,23.3,16.1,41,31.3,3.2,2.7,6.7,5.7,7.7,6.5,4.1,3.5,6.6,7.1,7.6,11,.5,2.1.5,5.7,0,8-1.1,4.4-3.2,8.1-7.8,13.1-3.2,3.6-11.8,13.6-14.9,17.5-14.5,17.9-23.5,32.9-29,48.7-3.1,8.9-4.8,17.4-5.6,27.7-.2,2.2-.4,4.4-.5,4.9-.4,1.4-1.4,3.2-2.3,4-.4.4-.8.8-.7.9.1.4,1.4-.6,2.1-1.7,1.2-1.8,1.6-3.2,1.9-7.3.4-4.7.4-5.3,1-9,1.9-13.5,7.1-27.9,15.1-41.5,7.3-12.5,15.3-23,31.8-41.9,5.1-5.8,6.9-8.3,8.2-11.3,1.4-3.2,1.8-5,1.8-8.3,0-2.3,0-3.1-.5-4.4-.9-3.2-2.7-6.1-5.4-8.7-1.3-1.3-12.2-10.6-19.2-16.5-10-8.4-19.3-15.2-32-23.6-4.6-3.1-4.9-3.2-4.9-2.8ZM548.8,210.1c-6.8,1-13,5.9-15.5,12.3-1.2,2.9-1.6,5.4-1.6,9.8,0,7.4,1.5,13.1,7,27.7,5.2,13.7,6.6,17.6,8,22.5,1.4,4.9,1.9,7.7,3.6,20.3,1.7,12.6,5.1,18.6,12.2,21.2,3.3,1.2,7.2,1.6,11.9,1.3,4.9-.4,7.7-1.1,9.9-2.5,2.2-1.4,3.4-3.1,6-8.3,1.9-3.7,2.4-4.7,4.9-8.6,1-1.6,1.8-3,1.8-3.2,0-.4-3.5,4.6-5.2,7.8-.7,1.3-2,3.6-2.7,5.2-2.4,4.7-4.1,6.6-7.3,7.8-4.2,1.6-12.5,1.9-17.3.7-4.8-1.2-8.2-3.9-10.3-8-1.7-3.4-2.8-7.7-3.7-15.3-1.4-11.1-1.9-13.5-3.5-19.1-1.5-5-2.4-7.7-7.2-20.4-5.4-14.1-7-19.8-7.4-26.5-.6-7.9,1.3-14,5.6-18.4,2.7-2.7,6-4.5,9.9-5.5,1.9-.5,5.9-.3,8.3.4,4,1.2,8.7,3.7,13.9,7.4,2.4,1.7,7.8,6,13.2,10.4,3.8,3.1,13.2,10,13.6,10s.2-.1.2-.3-.1-.3-.2-.3c-.5,0-8.7-6-13.6-10-11.8-9.5-15.7-12.4-20.7-15-4.9-2.6-10-3.8-13.6-3.2ZM85.6,214.4c-1.5.7-1.9,3.1-1.1,6.7.5,2.5.7,3,1.8,4,1.9,1.8,4.9,3.6,13.2,8.1,6.2,3.3,9.7,5.4,11.2,6.7,1.9,1.6,5.3,5.8,5.6,7.1.1.5,0,.6-.5.9-2.2,1.2-2.9,2.6-2.5,5,.4,2.5,1.5,4.8,4.6,9.8,3.8,6.1,4.3,8.1,3.1,11.7-1.6,4.8-5.3,10-14.6,20.5-2.4,2.7-5.4,6.2-6.7,7.9-5.2,6.5-7,8.4-19,20.4-12.1,12.1-16.5,17.2-20.9,24.4-3.7,6-5.6,10.9-7.6,19.1-5.6,23.6-6.7,44.9-3.2,61.8,1.8,8.7,5.9,17.1,10.5,21.7,2.3,2.3,4.2,3.3,6.2,3.3,3.2,0,5.4-2.2,7.4-7.2.9-2.4,1.4-4.1,2.4-9.3,3-15.2,7.4-26.4,14.2-36.4,2.8-4.2,5.1-6.9,9.3-11.1,6.4-6.4,10-9.2,24.4-18.8,6.3-4.2,10.1-6.9,13.9-9.7,3.7-2.8,10-8.9,12.8-12.4,5.9-7.4,9.9-15.5,12.8-25.6,1.2-4.2,1.4-6.2,1.3-11.2,0-3.3-.2-5-.7-7.4-1.1-6.1-2.8-11.5-5.1-16.5-2.4-5.1-4.4-7.5-9.9-11.7-4.2-3.3-6.5-5.7-7.4-7.9-.3-.8-.4-2.7-.2-8.1v-2.8c0,0-.7-1.6-.7-1.6-1-2-3.3-4.4-5.1-5.3-.7-.4-2.5-1-4.3-1.4-3.6-.9-5.6-1.8-6.9-3.2-10.2-11.2-20.1-21-26.2-25.9-2.5-2-6.2-4.5-7.8-5.2-1.6-.7-3.3-.9-4.2-.4ZM85.8,215.5c-.6.6-.7,1.6-.6,3.5.2,2,.7,3.9,1.2,4.8,1,1.4,4.5,3.7,13.1,8.3,6,3.2,9.5,5.3,11.5,6.8,2.2,1.7,5.6,6,6.2,7.8.3,1,0,1.5-1.4,2.3-1.6.9-1.9,1.8-1.6,3.9.4,2.3,1.7,5,5,10.2,1.5,2.3,2.8,5.2,3.1,6.7.9,4.6-3.3,12.1-12.9,23-.9,1-1.6,1.8-1.7,1.9-.6.5-6.4,7.3-8,9.4-4.2,5.4-7.3,8.7-19.3,20.6-8.8,8.7-12.1,12.3-15.8,17.4-5.8,7.7-9,14.2-11.2,22.9-4.1,16.3-5.8,30-5.6,44.4.2,8.1.6,12.7,1.9,19.1,1.3,6.2,3.8,12.4,7.1,17.4,1.6,2.4,4.6,5.3,6.2,6.1,3.6,1.7,6.4-.1,8.7-5.8.9-2.2,1.7-5.2,2.7-10.3,3.9-19.8,11.1-34.5,22.7-46.3,6.4-6.6,10.3-9.6,25-19.4,4.9-3.3,10.4-7.1,12.1-8.4,13.5-10.1,21.1-20.4,26.1-34.9,2.3-6.8,2.9-11,2.6-16.8-.7-9.9-4.7-21.9-9.2-27.5-1.5-1.9-2.6-2.9-6-5.5-3.7-2.8-6.4-5.6-7.4-7.6-.8-1.5-.8-1.7-.8-3.8,0-1.2,0-3.5,0-5.1.1-3.3,0-3.6-1.4-5.6-1.9-2.7-3.8-3.8-7.7-4.8-4.9-1.1-5.9-1.7-9.5-5.7-4.6-5-5.5-5.9-11.3-11.8-11.4-11.5-18.8-17.2-22.6-17.5-.9,0-1.1,0-1.5.3ZM.2,216.2c0,.2.5.6,1.1,1.1,3.1,2.3,9.7,6.9,14.3,10,13.2,8.9,19.6,13.9,25.5,20,4.1,4.2,6.1,7,7.2,10.4.5,1.5.6,1.9.6,4.6,0,2.5,0,3.1-.5,4.5-1.4,4.4-4,8.4-9.9,15.5-14.9,17.7-22.1,27.7-29,40.4-3.7,6.9-9.2,19.8-9.2,21.8,0,.6,0,.5.4-.5.2-.6.9-2.3,1.4-3.7,4.4-11.9,11.8-25.5,19.9-36.4.5-.7,1.4-2,2-2.7,3.4-4.6,7.8-10.1,13.5-16.8,4.8-5.7,5.9-7.1,7.5-9.5,3.5-5.2,5-10.1,4.4-14.1-.7-4.9-3.1-8.8-9.1-14.7-4.1-4.1-8.9-8-15.5-12.7-3-2.1-4.5-3.1-11.8-8.1-2.4-1.6-7.3-5.1-11.5-8.1-.8-.6-1.3-.8-1.3-.7ZM364.9,219.6c-.5.7-.3,1.9.9,8.9,2.4,13.1,3.5,22.4,4,34.8.3,7.4.1,24.8-.3,32.3-.4,6.5-.3,16.4.2,21.3,1.1,10.2,3,17.9,6.4,24.9,2.3,4.8,4.6,8,7.9,11.3,3.8,3.7,8.1,6.1,12.9,7.2,2.2.5,7,.5,9.4,0,8.4-1.8,15.5-7.8,19.9-16.8,1.7-3.5,2.7-6.6,3.5-11.3,2.1-11.2,2.1-22.1,0-33.1-5.4-28-26.1-56.1-55.9-75.8-6.6-4.3-8.2-5-8.9-3.9ZM365.3,219.7c-.4.6-.1,2.7,1.5,11.3,2.2,11.7,3.3,22.8,3.7,36.8.2,8.1,0,20.2-.5,26.9-.3,4.4-.3,17.3,0,20.7.1,1.5.5,4.1.7,5.7,3,21.7,12.7,35.8,26.5,38.8,2,.4,6.7.4,8.8,0,10-2.1,18-10,21.7-21.6,1.1-3.6,2.2-9.3,2.8-14.7.3-3.4.3-12.2,0-15.7-2.7-27.2-18-53.2-43.9-74.6-6.8-5.6-19.1-13.9-20.7-13.9s-.5.1-.5.2ZM550.6,221.2c-3.9,1.1-7,4.1-8.3,8.3-1.9,5.9-.6,13.2,4.7,26.4,5.6,14,8.6,22.9,10.4,31.2,2.9,13.1,5.3,19.1,9.1,22.9,1.5,1.5,3.4,2.5,5.1,2.8,4.6.7,9.9-3,16.3-11.5,2.8-3.7,8.9-13,9-13.7,0-.4,0-.5,0-.4-.3.6-6.3,9.5-7.9,11.7-2.5,3.5-4.6,6-6.8,8.2-2.2,2.2-3.9,3.4-6,4.4-1.2.6-1.6.6-3.4.7-1.8,0-2.1,0-3.3-.7-4.8-2.4-7.9-8.6-10.9-21.7-2.7-11.6-5-18.9-10.7-33.2-4.3-10.6-5.6-15.2-5.8-20.7-.2-5.6,1.2-9.4,4.6-12.2,5-4.2,11-3.1,19.7,3.4.9.6,3.5,2.8,5.8,4.7,5.3,4.4,8.5,6.9,12.1,9.6,4.7,3.5,12.2,8.6,12.5,8.6s.2-.1.2-.3,0-.3-.2-.3c-.4,0-5.2-3.3-11.2-7.7-3.1-2.2-10-7.7-14.4-11.4-7.8-6.5-13-9.4-17.6-9.6-1.2,0-2.2,0-3,.2ZM.2,227.6c0,.4,2.3,2,11.3,8.1,3.8,2.5,7.7,5.2,8.7,6,7.8,5.6,11.7,10.3,13.2,16,.4,1.5.5,2.2.5,4.8,0,3.5-.5,5.9-2.1,9.9-2.9,7.3-6.7,13.2-16.1,24.8-8.8,10.8-12.5,16.2-14.9,22.1-.4,1-.7,2.1-.7,2.4,0,.5.2.3.6-.8,2.2-5.9,6.1-12.1,13.5-21,9.7-11.9,13-16.5,16-22.7,3.2-6.4,4.4-10.8,4.2-15.7-.2-4.3-1.4-7.7-4.2-11.3-3.1-4.1-6.8-7-18.4-14.8-6.1-4.1-10.3-7-11.5-7.9-.2-.1-.3-.1-.3.1ZM554.7,234.2c-1.5.5-3.1,1.9-3.7,3.3-.9,2.1,0,5.6,3.1,12.4,1.8,3.9,2.5,5.6,4.3,10.4,4.3,11.3,5.8,16.2,7.4,23.2,1.7,7.1,2.8,10,5,12.1,2.3,2.3,5,3.2,7.1,2.3,1.7-.8,3.6-2.8,5.8-6.4.7-1.2,2.5-4,4-6.2,6.3-9.6,7.9-13.5,7.6-18-.2-3.4-1.6-6.2-4.7-9.5-1.9-1.9-3.7-3.4-9-7.2-1.8-1.3-4.4-3.3-5.8-4.5-8.3-7.1-12.3-9.9-16.4-11.3-1.5-.5-3.9-.7-4.8-.5ZM554.2,235.2c-1.1.5-2.3,1.9-2.6,3-.1.4-.2,1.3,0,1.9.2,1.5,1.3,4.9,2.6,7.7,2.8,6.1,4.3,9.9,7.2,17.7,2.3,6.4,4.4,13.3,5.8,19.5,1.6,6.8,3.4,10.1,6.8,11.8,1.4.7,2.3.8,3.6.4,1.4-.4,3.7-2.9,5.7-6.2,1-1.5,2.4-3.9,3.3-5.2,5.3-8.1,7-11.4,7.8-15,.4-1.6.4-3.9,0-5.4-.5-2.6-2.6-5.8-5.5-8.5-1.5-1.3-2.2-1.9-8-6.1-1.8-1.3-4.5-3.5-6.1-4.8-7.2-6.3-12.1-9.6-15.8-10.7-1.8-.5-3.7-.6-4.8,0ZM376,236.6c-1,.5-1,1.9,0,10.1,1.5,12.2,2.1,23.8,1.7,35.3-.1,4-.4,9.1-.6,11.5-.4,5.1-.4,14.4,0,18,1.2,12.5,4.7,22.1,10.5,28.8,6.2,7.2,14.7,10.1,22,7.5,4.8-1.7,8.5-5.7,10.4-11.2.5-1.6,1.4-5.8,1.8-9.5.6-4.3.5-14.3,0-18.9-2-15.1-7.7-29.7-17.1-43.8-4.8-7.3-9.3-12.7-15.3-18.7-4-4-7.1-6.5-10-8.2-1.9-1.1-2.6-1.3-3.3-1ZM375.8,237.7c-.3.8-.1,2.8.6,8.4,2.1,15.6,2.4,29,1.1,48.1-.6,8.9-.3,17.5.9,24,2.4,13.7,8.9,24,17.9,28.2,2.6,1.3,4.9,1.8,7.8,1.8,6.2,0,11.2-3.1,14.1-8.7,1.1-2.2,1.7-3.9,2.3-7.4,1-5,1.2-7.7,1.2-13.8,0-9.5-1.1-16.3-4.2-26.2-.8-2.5-2.9-8.1-4-10.4-2.4-5.2-4.3-8.7-6.8-12.9-5.3-8.6-10.6-15.4-17.3-22.2-4.7-4.7-8.3-7.6-11.3-9.1-1.5-.8-2-.7-2.4.2ZM.2,239c0,.1,1.9,1.5,4.2,3.1,14.8,9.9,17.7,12.3,19.6,16.4.6,1.2.7,1.7.7,3.5,0,2.6-.2,4-1.6,7.6-2.4,6.1-5.8,11.2-15.4,23-4.6,5.6-7.5,9.6-7.5,10,0,.2.5-.3,1.3-1.4.7-1,3.7-4.8,6.7-8.6,6.7-8.3,8-10.1,10.3-13.5,5.1-7.8,7.5-14.6,6.5-18.9-.5-2.2-1.5-3.9-4-6.3-2.5-2.5-5.7-4.9-14.1-10.5-7.5-5-6.9-4.6-6.9-4.3ZM.2,250.3c0,.1,1.1,1,2.5,1.9,4.5,2.9,7.5,6.2,8.7,9.5.5,1.3.5,1.8.5,4,0,2.3,0,2.7-.7,4.5-1.3,3.9-3.6,7.5-9,14.3-1.1,1.4-2,2.7-2,3s.5-.2,1.5-1.5c.8-1.1,2.2-2.8,3-3.8,3.4-4.3,5.8-8.4,7-11.8.5-1.6.7-2.4.8-4.3,0-2.2,0-2.5-.5-4.1-.9-2.8-2.8-5.4-5.8-7.8-1.3-1.1-5.6-4.1-5.9-4.1s-.1.1-.1.3ZM304.7,254.9c-4,.7-7.4,1.8-11.1,3.8-9.4,4.9-16.7,13.8-20.3,24.4-1.4,4.1-1.6,5.4-1.7,9.6,0,3.1,0,4,.3,6.2,1.1,6.4,4.4,13.6,9.8,21.9,2.8,4.2,8,11.1,16.1,21.3,14.7,18.5,21.7,29.6,26.7,42.2,6.1,15.5,6.9,30.7,2.6,48.2-4.2,17.1-12.6,31.5-21.1,36.1-2.8,1.5-4.7,2-12,3-5.3.7-9,1.9-12.4,4-3.5,2.1-5.1,4.8-7.2,12-1.7,5.7-3.1,8.8-4.5,10-.7.6-2.2,1.2-4.1,1.5-3.6.7-5,1.2-6.2,2.6-1.2,1.3-1.6,2.3-1.6,3.7s.4,2.8,2.1,6.2c1.5,2.9,2,4.5,2,5.7s-1.2,3.4-3.9,7.6c-4.2,6.5-5.7,9.2-6.2,12.2-.6,3.4.6,5.6,3.7,7.1,1.5.7,2.5.8,4.2.3,4-1.2,8.3-4.6,18.5-14.5,4.6-4.4,7.8-7.3,9.5-8.6,1.7-1.2,4.7-2.5,9.2-4,8.7-2.9,18.6-5,38.3-8,5-.8,11.2-1.8,15.9-2.7,13.3-2.5,21.3-3.3,33.3-3.3,10.3,0,15.2.4,23.9,1.9,19.1,3.4,37.1,11.9,52.1,24.4,3.4,2.9,4.8,4.2,9.3,8.6,4.3,4.3,5.2,5,8.6,5.8,2.5.7,6.7.6,10.2-.1,16.7-3.4,36.4-17.8,50.2-36.8,11-15.1,17.4-30.8,19.5-48.1.4-3.5.6-12.6.3-16.4-.9-11-3.9-22.3-8.4-31.7-2.5-5.2-4.8-8.5-8.3-11.8-6.1-5.9-13.9-8.5-23.8-7.8-8.4.6-16.6,2.6-35.1,8.6-19.6,6.4-31.1,9.3-42.8,10.9-10.3,1.4-21.7,1.4-30.8.1-11.7-1.7-22.9-5.5-33.5-11.3-19.9-10.9-33-26.5-39.3-47-4.9-15.7-5.9-33.7-3.3-57.3,1.2-10.9.2-20-3-26.7-3.4-7.3-9.1-12-16.4-13.6-2.5-.5-6.9-.7-9.4-.3ZM306.2,255.6c-4.1.5-7.1,1.4-10.7,3.1-9.7,4.6-17.6,13.6-21.3,24.3-1.3,3.9-1.7,5.6-1.8,9.4-.2,6.2,1.1,11.6,4.4,18.4,3.5,7.1,7.6,13,20.2,29,10,12.7,14.6,19,18.4,25.2,8.5,13.7,12.9,25.2,14.6,37.8.5,3.5.6,10.6.3,14.4-1.4,18.5-8.9,37.9-18.4,47.8-2.2,2.3-4,3.6-6.5,4.8-2.9,1.4-4.3,1.7-12.2,2.8-6,.8-11.1,3-13.9,6-1.3,1.4-2.7,4.2-3.7,7.6-2.2,7.3-3.1,9.4-4.6,11.4-1,1.4-2.1,1.8-5.4,2.5-4,.8-5.6,1.7-6.6,3.7-.9,1.7-.5,3.4,1.7,7.8,3,5.9,2.9,6.4-2.3,14.3-3.2,4.8-4.6,7.4-5.4,9.8-1.3,3.8-.3,6.5,2.9,7.9,1.7.8,3,.6,5.5-.6,3.8-1.9,6.3-4,16.5-13.8,8.7-8.4,9.7-9.1,14.5-11,9.2-3.6,19.9-6,42.6-9.6,6.6-1,9.6-1.5,13.8-2.3,16.1-3,26.6-4,38.8-3.8,6.9.1,10.7.5,17.2,1.4,16.8,2.4,33.4,8.9,47.1,18.2,6.8,4.7,11.6,8.8,19.1,16.3,2.9,2.9,3.4,3.3,4.8,4,8.6,4.1,23.9-.7,39.6-12.5,5.6-4.2,12.3-10.5,17.3-16.2,5.7-6.6,11.8-15.8,15.6-23.6,10.3-21.4,12.5-42.8,6.7-64.2-3.3-11.9-8-21.1-13.6-26.4-7-6.6-15.8-8.7-28.7-6.7-6.3,1-13,2.8-26.7,7.2-18.9,6.1-26.4,8.2-35.9,10.1-9.9,2-16.7,2.7-25.8,2.7-13.2,0-23.9-1.9-35.6-6.3-13.3-5-25.1-12.6-34.1-21.7-6-6.2-10-11.9-13.9-19.8-8.5-17.4-11.3-39.3-8.3-67.3.9-8.2.9-14.2.2-18.6-1.7-10.2-5.9-17-13-21-3.5-1.9-9.4-3-13.4-2.5ZM387,257.2c-.9.6-.9,3.4-.2,11.9.8,9.7,1,16.3.7,23.5-.3,7.2-.3,14.1,0,17.5,1.3,12.4,5.2,22.5,11.1,28.3,2.8,2.8,5.3,4,8.1,4,3.9,0,6.6-3,8.1-8.8,4.6-17.9-.9-40.5-15.4-62.6-3.5-5.4-8.6-11.9-10.4-13.2-.7-.6-1.7-.8-2.1-.6ZM387.1,258.5c-.3.7-.2,3,0,6.7,1.1,11.6,1.3,20.1.9,34-.2,8,.1,12.9,1.4,18.9,2.3,10.7,7.4,19.4,13,22.4,4.9,2.6,9.1.5,11.1-5.6,1.6-4.7,2.4-13.5,1.8-19.8-1.2-13.7-7-28.9-16.3-43.2-4.6-7-10.3-14-11.4-14s-.5.2-.6.5ZM304.4,264.6c-5.8,1.2-11.8,5.2-16.2,10.5-2.9,3.6-5.5,8.8-6.7,13.5-.6,2.1-.6,6.5-.1,9,1.6,8.2,6.6,16.7,19.6,33.2,12.1,15.4,14.5,18.5,19.2,25.5,10.3,15.5,16.1,29.4,18.3,43.6,1.2,8.3,1.1,17.6-.4,26.4-1.8,10.2-4.4,18.2-9,27.6-7.1,14.4-16.5,26.6-28,36.4-4.4,3.8-9.9,7.6-18.3,12.9-5.2,3.2-5.7,3.6-6.9,4.8-1.4,1.4-1.1,2.3,1,3,1.2.4,9.8.3,13.5-.1,11.2-1.4,22.1-3.9,34.2-7.9.8-.3,3.2-1,5.4-1.6,14.3-4.2,29.5-6.8,46.2-7.8,4.8-.3,21.3-.3,26.3,0,19.4,1.2,32.9,4.7,46.6,12,9.5,5.1,18.8,12,29.8,22.3,1.4,1.3,2.8,2.2,4.5,2.8,1.2.4,1.7.5,4.8.5,3,0,3.7,0,5.5-.6,10.5-2.8,22.4-11,32.6-22.4,11-12.3,19-28.3,22-44.1,1.8-9.7,1.8-20.9-.2-30.5-1.5-7.5-4.6-15.9-7.6-21.2-3.5-6.1-7.4-9.3-12.7-10.8-1.9-.5-2.3-.5-6.4-.5-3.8,0-4.8,0-7.6.6-6.4,1.1-12.7,2.8-26.7,7.4-21.4,6.9-33.2,9.9-45.8,11.6-20.7,2.8-40.2.4-58-6.9-13.4-5.5-24.9-13-34-22.2-14.2-14.2-22.4-32.3-25.4-55.2-.8-6.5-1-9.1-1-18.6,0-9.5.1-12.1,1-21.4.7-7.4.8-9.3.5-12.7-.7-9.3-3.7-15.2-9-17.9-2.8-1.4-7.1-1.8-11-1ZM306.2,264.7c-.2,0-.9.2-1.6.3-8.2,1.7-16.1,8.4-20.3,17.3-2.1,4.4-2.8,7.3-2.8,10.9,0,7.4,3.4,15,11.7,26.6,2.2,3,4.2,5.7,10.3,13.4,14.7,18.6,20.6,27.2,26,38,5.7,11.3,8.7,21.3,9.9,32.6.4,3.6.3,12.9-.1,16.7-1.7,14.6-5.8,26.8-13.4,40.1-7.9,13.8-17.7,25-29.7,34-3.4,2.5-7.9,5.5-13.2,8.8-5,3.1-6.9,4.5-7.4,5.3-.3.6-.3.6,0,1,.6.6,1.7.8,4.3,1,9.4.5,26.5-2.7,42.8-7.9,15.4-5,29.8-7.9,46.5-9.4,6.7-.6,9.7-.7,19.7-.7,9.9,0,13.5.1,19.7.7,27.7,2.6,46.7,11.8,70.2,33.7,2.9,2.7,5.5,3.7,9.8,3.5,7.7-.4,17.7-5.4,27.9-14,2.7-2.2,8.2-7.8,10.7-10.7,10-11.7,17.2-26.4,20.2-41.1,1.2-6.1,1.4-8.4,1.4-15.8,0-5.2,0-7.3-.4-9.4-.9-6.4-2.4-12.6-4.5-18.4-4.5-12.2-9.7-18.1-17.5-19.7-1.3-.3-2.6-.4-5.3-.4-7.8,0-14.6,1.6-35.9,8.5-22.9,7.4-34.5,10.1-49.7,11.7-5.1.5-17.7.5-22.6,0-13.9-1.5-25.6-4.9-37.8-11-20-9.9-34.1-23.8-42.9-42-4.8-10-7.9-21.3-9.4-34.3-1.2-10.4-1-26.1.5-39.6.5-4.2.5-10.3.2-13.3-.9-7-3.6-12.3-7.8-14.8-2.1-1.3-3.9-1.8-6.8-1.8-1.4,0-2.8,0-3,0ZM305.7,273.6c-3.1.8-6.3,2.8-9.5,6-2.5,2.6-4.2,5-5.1,7.4-.5,1.4-.6,1.8-.6,4.3,0,2.2.1,3.3.5,5,1.7,7.6,6.5,16.7,11.3,21.5,3.2,3.2,5.6,3.9,8.6,2.6,1.8-.8,2.8-1.9,3.3-3.7,0-.3.2-4.4.1-8.9,0-7,0-9,.4-12.7.9-9,.3-15.5-1.7-19.3-1-1.9-1.8-2.4-4.3-2.4-1.2,0-2.5,0-3.1.2ZM305.9,274.3c-3.3.9-6.5,2.9-9.4,6-2.5,2.6-4.5,5.8-5,8.1-.3,1.3-.3,4.6,0,6.4,1.2,7.4,6.3,17.6,11.4,22.6,1.9,1.9,3.4,2.8,4.9,2.9,2.1.2,4.5-1,5.4-2.7.5-.9.5-.9.5-10.2,0-5.9.1-10.1.3-11.4,1.1-9.1.4-16.9-1.7-20.2-1.1-1.7-3.4-2.1-6.4-1.3ZM133.5,283.6c-.6.2-1.5.5-2.1.8-1.1.6-3.8,2.6-4.6,3.6-2.7,3.1-5.1,6.4-9.8,13.8-3.6,5.7-10.9,14-22,25.3-3.3,3.4-6,6-8.6,8.4-15.1,13.9-19.8,20.4-20.4,28.6-.2,2.9,0,6.2,1,10.8,2,9.8,1.9,9.1,2,13.6,0,3.8,0,4.3-.5,5.6-.8,2.4-1.5,3.9-4.2,8.3-1.4,2.3-2.9,4.9-3.3,5.8-2.8,5.7-2.8,10,0,15.5,1.4,2.7,3.3,4.2,4.9,3.8,1.8-.4,3.9-2.4,6.3-5.9,3.6-5.4,4.8-8.5,7-18.8,3-13.8,5.3-18.2,13.4-26.1,5-4.9,8.3-7.3,22.1-16.5,12.3-8.1,16.4-11.4,21.3-16.3,6.9-7.1,11.7-15.9,14.2-26.3,1.9-7.7.5-19.7-2.9-26.6-2.1-4.1-4.7-6.6-8-7.6-1.4-.4-4.3-.4-5.8,0ZM134.5,284.1c-4.2.7-8.2,4.5-13.7,13.2-5,7.8-6.6,9.9-11.3,15.4-3.8,4.4-13.2,14.4-16.8,17.9-.9.9-4,3.8-6.1,5.7-5.5,5.1-7.9,7.5-10.2,10-9.3,10.1-11.2,16.1-8.8,27.5.3,1.3.8,4,1.2,5.9,1.2,5.5,1.4,9,.9,12.2-.5,3.3-1.4,5.4-5,11.4-3.3,5.5-4.3,7.6-4.8,10.4-.5,2.9-.3,4.7,1.1,7.9,3,7,5.7,6.8,11-1,3.2-4.8,4.5-8.4,6.7-18.5,2.4-11.2,4.2-15.3,8.8-21.1,3.6-4.5,8.7-9,15.2-13.7,1.4-1,6.3-4.3,10.9-7.4,13.4-8.9,16.4-11.2,21.3-16.1,7-7,11.4-14.7,14.2-24.8,1-3.7,1.2-4.8,1.2-9.7,0-5.2-.3-8-1.5-12.2-1.3-4.8-2.8-7.9-5.2-10.4-2.6-2.7-5.4-3.6-9-3ZM219.2,289c-.5.3-1.2.8-1.6,1.4-.6.8-.6,1.1-.7,2.9-.1,3,.7,5.6,3.9,13.1,2.1,4.8,2.4,5.9,2.3,7.8-.1,2.6-.8,3.9-3.7,6.8-2.9,3-3.4,3.9-3.5,6.5-.1,2.3.1,3.2,1.9,6.6,3.1,5.9,2.8,7.4-2.5,15-4.6,6.5-10.7,13.7-31.8,37.7-12.3,14-17.2,20.3-17.3,22,0,.7,0,.8,1,1.3,1,.5,1.2.5,5.2.5,4.4,0,6.1-.2,16.3-1.9,14-2.3,17.8-2.7,25.7-2.7,7.2,0,8.7.1,12.2,1.3,2,.7,2.7,1,10.8,5.7,6.9,4,11.9,6.6,15.8,8.2,11.9,5.1,20.7,5,26.5-.3,6.7-6.1,6.7-16.3-.3-30.8-3.7-7.7-9-15.6-16.5-24.5-15.9-18.9-25.4-33-30.2-44.6-.8-1.9-1-2.7-2.8-10.6-3.1-13.8-5.7-20.5-8.7-21.8-.9-.4-1.1-.4-2.1.2ZM219,289.6c-2,1.3-2.2,4.6-.6,9.4.3,1,1.4,3.8,2.4,6.1,2.6,6.1,2.8,6.7,2.7,9-.1,2.8-.7,4.1-3.7,7.1-2.8,2.9-3.4,4-3.5,6.4,0,2,.2,3,1.9,6.3.7,1.4,1.5,3,1.6,3.6.5,1.7.4,3.8-.2,5.2-1.7,4.1-7.7,11.9-20.5,26.8-2.1,2.5-3.9,4.5-4,4.6,0,0-1.7,1.9-3.6,4.2-1.9,2.2-3.6,4.1-3.7,4.2-.2.2-7.4,8.4-11,12.7-7.5,8.7-10.7,13.1-10.3,14,0,.2.6.5,1.2.7.9.3,1.7.4,4.5.4,3.6,0,5.7-.2,13.4-1.5,15.2-2.4,18.8-2.8,25.2-3.2,6.7-.4,12.6.2,16.5,1.6,1.5.5,3.9,1.9,12.6,6.9,13.7,7.9,23.5,11.3,30.4,10.4,4.1-.5,6.9-1.8,9.5-4.4,1.3-1.3,1.8-2,2.6-3.5,1.2-2.5,1.6-4.4,1.6-7.6,0-8.1-4.2-18.7-12.2-30.6-2.5-3.8-5.5-7.7-9.6-12.5-14.2-17-22.8-29.2-28.1-40-2.5-5.1-2.9-6.2-4.3-12.7-3.2-14.3-5.4-20.8-7.9-23.2-1.1-1-2.1-1.1-3.2-.4ZM398,292.9c-2.1,1.6-3.3,8.8-2.6,15.3.6,5.6,2,10.4,4.4,15,2.5,4.9,4.7,4.4,6-1.3.6-2.8.6-10.5-.1-14.3-.9-4.9-2.3-9.2-4.3-12.7-1.4-2.4-2.2-2.9-3.4-2ZM398.3,294c-.6.8-1.3,2.6-1.6,4.6-.5,2.6-.4,9.1.1,12.4,1.1,6.5,4.5,14.6,6.1,14.6s1.2-1.2,1.7-3c.6-2.1.8-8.7.4-12-.5-4.7-2-10.2-3.6-13.3-1.1-2.1-2.1-3.7-2.4-3.7s-.5.2-.7.5ZM133.3,296.4c-2.2,1.1-4.7,4.1-7.7,9.1-1.6,2.7-3.3,5-6.4,8.9-5.4,6.8-10.5,12.3-24.2,26.3-8.3,8.5-11.5,12.2-14.9,17.3-3.3,5-5.1,9-5.1,11.7s.6,3,2.3,3.4c1.2.3,3.4-.2,5.5-1.3,2.9-1.5,8.8-5.6,15.7-11.1,5-3.9,9-6.8,13.2-9.7,9.2-6.1,13.6-9.5,17.5-13.6,5.3-5.5,8.4-10.9,11-18.8,1.3-4.2,1.7-6.5,1.7-10.9,0-3.4,0-4.2-.5-5.8-.7-2.9-2.1-4.9-3.7-5.6-1.1-.5-3.3-.4-4.4.2ZM133.5,296.9c-2.1,1-4.2,3.3-7.3,8.5-5.4,8.7-12.3,16.8-30,34.8-11.2,11.4-15,16.1-18.6,23-3.1,5.9-2.9,9.5.6,9.5s7.4-2.5,20.7-12.8c8-6.2,6.9-5.4,13.4-9.8,9.3-6.2,13.6-9.6,17.3-13.6,5.5-5.9,9-12.6,11.1-21.2,1.3-5.3,1.1-12.1-.4-15.7-1.3-3-4-4.1-6.7-2.8ZM127.5,318.4c-1.6.7-2.2,1.4-10.7,11.9-3.8,4.7-4.7,6.8-3,7.5.9.4,3.2,0,5.1-1,4.3-2,8.8-7.5,10.8-12.8.4-1.2.6-2,.6-3.3,0-1.7,0-1.8-.6-2.2-.7-.6-1-.6-2.1-.1ZM127.1,319.5c-.6.4-1.5,1.3-2.1,2-.6.7-1.6,1.9-2.1,2.5-1.3,1.6-5.6,6.9-7.1,8.8-1.4,1.8-2.1,3.2-2.1,3.8,0,.4.2.5,1.4.4,2.4,0,5-1.4,7.7-4,3.8-3.7,6.7-9,6.7-12.3s-.7-2.3-2.4-1.1ZM226.6,333.6c-.9.3-1.3,1.7-1.8,6-1,7.6-3,14.2-6.4,21.1-5,9.9-11.2,17.2-23.5,27.5-8.3,7-9.6,8.8-7.5,10.8,1,.9,2.3,1.3,4.9,1.3s2.9,0,12.4-1.8c9.7-1.7,16-1.8,21.8-.3,4.1,1,6.8,2.4,10.9,5.4,9.3,6.9,18.4,10.8,25.1,10.8,5.8,0,9.6-2.4,11.2-6.9.6-1.9.6-5.5,0-8.4-1.9-8.4-8.4-19.9-16.7-29.3-7.2-8.2-12.6-15-20.4-25.7-7-9.6-8.5-11.1-9.9-10.6ZM226.3,334.6c-.4.8-.5,1.2-1,4.8-1.1,8.5-2.9,14.4-6.4,21.3-5,10-11.6,17.7-24.1,28.2-3.9,3.3-6.8,6-7.4,7-.2.4-.4,1-.5,1.5,0,.6.1.9.8,1.4,1.7,1.5,4.7,1.5,13.6,0,9.1-1.6,10.4-1.8,16-1.8,5.5,0,7.3.2,10.9,1.4,3.8,1.2,5.2,2,11,6.2,5.3,3.8,10.8,6.7,15.8,8.3,3.3,1.1,4.1,1.2,7.4,1.2s3.3,0,4.5-.5c3.3-1.1,5.5-3.4,6.3-6.6.3-1.3.4-4.8,0-6.5-1-5.7-4.2-12.7-9.3-20.4-2.6-4-4-5.7-9.3-11.9-7.1-8.3-10.5-12.6-21-26.9-4.9-6.7-6.5-8.1-7.4-6.6ZM231.2,357.7c-1,.5-2,1.9-3.7,4.9-4.6,8.4-5.9,10.1-12.7,17.4-6,6.5-7,8-6,9,.9.9,2.9.9,9.4,0,5.7-.8,11.8,0,17.8,2.6,4.2,1.7,7.2,3.4,14.5,8.2,6.3,4.1,7.9,5,9.7,5s3.7-2.2,3.7-5.4c0-5.4-4.5-13.6-13.4-24.2-5.4-6.5-15.2-16.5-17-17.4-1.1-.5-1.3-.6-2.2-.1ZM231.1,358.6c-.7.6-1.6,1.9-4.2,6.6-3.6,6.4-5.5,8.9-11.4,15.2-4.1,4.4-5.8,6.5-6.2,7.4-.5,1.3,1.3,1.5,7.1.8,6.7-.9,11.4-.5,17.1,1.4,5.1,1.7,9.2,3.9,17.5,9.4,6.5,4.3,8.6,5.3,10.1,4.5.9-.5,1.7-1.7,1.9-3.1,1-5.3-4.6-15.3-15.7-28.1-3.1-3.6-12.8-13.3-13.9-14-.9-.5-1.6-.6-2.3,0ZM233.1,369.9c-2.5.9-5.1,3-6.9,5.8-1.8,2.6-2.4,4.5-1.8,5.8.4.9,1,1.1,3,1.3,4.8.4,9.8,2.4,17.8,7.2,5.9,3.5,7.5,4.1,8.4,3.2.8-.7.4-3-.9-5.6-2.8-5.6-10.7-14.3-15.8-17.3-1.1-.6-2.5-.8-3.8-.3ZM233.1,371c-1.5.5-2.6,1.4-4.3,3.1-2.4,2.5-4,5.5-3.6,6.8.2.7.4.7,2.7,1,5.1.5,9.5,2.3,17.6,7.1,4.7,2.8,6.1,3.5,6.9,3.6.6,0,.6,0,.6-1.1,0-1.9-1.9-5.4-5.1-9.6-3.2-4.1-9.2-9.8-11.5-10.8-1-.5-1.8-.5-3.2,0ZM350.2,409.9c-.4.2-.9.7-1.1,1.1-.5.9-.5,2.3-.2,8,.5,7.6-.3,15.6-2.5,23.5-2.8,10.4-7.9,20.3-15.5,30.1-2.9,3.8-5.6,6.8-10,11.4-4,4-5.5,6-5.9,7.4-.3,1.1-.3,1.4.4,2.1l.6.7h1.9c1.8,0,2.3-.2,5.8-1.3,14.8-4.8,29-7.4,47.9-8.6,5.5-.4,28.5-.4,33.7,0,19.2,1.3,34.1,5.2,48.2,12.5,11.6,6,20.6,12.6,32.4,23.5,1.6,1.5,3.2,2.8,3.6,3,1.3.6,3.8.5,5.8-.2,5-1.7,10.3-5.4,17.2-12.2,3.6-3.5,7.8-8.6,10.7-13,1.5-2.2,6.1-11.4,8.6-17.1,8.2-18.7,10-34.8,5.5-51-2.1-7.8-5.3-14.3-8.3-17.1-2.3-2.2-5-2.9-9.9-2.5-6.1.4-13.3,2.2-29.5,7.5-16.3,5.3-25,7.7-34.6,9.7-12.8,2.7-24.6,3.8-36.3,3.3-15.1-.6-27.2-3-39.5-7.8-6.3-2.5-10.1-4.4-17.5-8.5-5-2.8-7.6-4.1-9.2-4.5-1.6-.4-1.7-.4-2.6,0ZM350.2,410.3c-1.1.6-1.2,2.2-.8,7.1,1.8,20.3-5.7,41.2-21.5,59.7-1.5,1.8-3.1,3.5-6.6,7.1-4.5,4.6-5.8,6.4-5.9,8,0,.8.4,1.2,1.5,1.4,1.3.3,3.1,0,7.5-1.5,13.9-4.5,27.9-7,44.6-8.2,13.8-1,29.8-.9,41.9.2,28.5,2.6,52,13.6,75,35.3,3.4,3.2,4.2,3.7,6.2,3.7,1.8,0,3.4-.4,5.8-1.6,4.4-2.1,8.3-5.1,13.7-10.4,4.6-4.5,8.3-8.9,11.3-13.5,1.5-2.3,5-9.1,7.7-14.9,6.3-13.8,8.8-24.1,8.8-35.7,0-8-1.2-14.8-3.9-22.1-2.9-8.1-5.5-11.9-9-13.6l-1.5-.7h-3.9c-4.1,0-5.6.2-10.6,1.4-4,.9-12.7,3.5-18.7,5.5-5.7,1.9-17,5.4-22.4,6.9-23.4,6.6-42.7,8.3-63.2,5.8-15.4-1.9-29.2-6.6-43.9-15.1-4.7-2.7-6.9-3.8-8.7-4.5-1.4-.5-2.8-.6-3.4-.3ZM515.8,420.9c-4.1.7-8.6,1.9-21.2,5.6-21.6,6.3-32.8,8.9-46.6,10.9-9.1,1.3-21.1,2.2-27.2,1.9-18.1-.8-37.9-5.6-55.4-13.5-4.1-1.8-5.6-2.2-6.8-1.4-1.1.7-1.4,1.7-1.7,6.3-.4,7-.9,10.1-2.7,15.6-2,6-4.2,11.5-8.2,20.1-2.7,5.9-3.7,8.4-3.7,9.8s.7,1.9,1.6,2.4c1.5.7,3.7.7,9.8,0,13.9-1.3,21.9-1.8,34.7-1.9,17.1-.2,26.1.5,37,2.6,16.3,3.3,32.2,9.8,45.4,18.6,4.4,2.9,7.8,5.6,11.7,9.3,3.9,3.7,5.2,4.3,8.8,4.5,1.9,0,2.6,0,4.1-.4,6.3-1.6,13.8-7.6,20.3-16.3,4-5.4,7-11.1,9.6-18.8,4-11.5,6-26.1,5.1-36.5-.5-5.9-1.4-9.9-3.2-13.4-.8-1.7-1.3-2.5-2.4-3.6-2.3-2.3-4.2-2.7-9-1.8ZM517.2,421.2c-3.6.5-8.5,1.8-28.1,7.4-24.1,7-40.4,10-58.7,11.1-12.9.7-26.9-1-42.3-5.2-5.3-1.5-9.4-2.8-13.5-4.3-3.3-1.2-5.2-2-10.4-4.4-2.1-.9-4.1-1.4-4.9-1.2-.7.2-1.3,1-1.6,2.1-.1.4-.3,2.5-.4,4.6-.4,7.7-.9,10.1-3.6,17.8-1.9,5.4-3.6,9.5-7.1,17.1-3.1,6.8-3.7,8.3-3.7,9.9,0,1.2.5,1.9,1.7,2.3,1.1.4,4.8.3,9.8-.2,15-1.5,33.3-2.3,45.3-1.9,10,.3,15.5.8,22.4,2,23.3,4,46.6,15.1,61.1,29,3.6,3.4,5,4.1,8.8,4.1,2.1,0,2.8,0,4-.5,4.8-1.6,8.9-4.5,13.8-9.5,7-7.2,11.2-14.3,14.9-24.8,3.5-9.9,5.3-20.7,5.3-31.3,0-8.5-.9-13.9-3.2-18.6-1.2-2.5-2.9-4.4-4.5-5.1-1.2-.5-3.1-.6-5.1-.4ZM506.2,435.4c-1.5.4-4.1,1.6-7,3.4-6.8,4.1-11.1,5.4-22,6.7-8.8,1.1-11.7,1.6-15.7,3.1-1.2.5-3.6,1.3-5.2,1.9-4.2,1.6-6.2,1.9-9.6,1.8-3-.1-4.7-.5-7.4-1.9-2.4-1.2-6.9-3-9.1-3.7-3-.9-5.6-1.3-8.7-1.3-3,0-4.4.2-9.4,1.4-7.4,1.8-10.3,2.2-13.6,1.8-2.5-.3-4-.8-8.5-2.8-6.1-2.7-8.9-3.6-12.3-4.1-3.3-.4-6.8.3-9.8,1.8-4.5,2.3-9.1,12-8.1,17,.5,2.4,2.4,4.2,4.4,4.2s3.3-1,6.5-4c3.3-3.2,4.1-3.6,6.5-3.7,1.5,0,1.8,0,3.1.5.8.3,1.9.9,2.5,1.2,2.2,1.3,4.8,2.4,6.3,2.8,2.2.5,4.4.3,8.5-.6,4.4-1,6.4-1.2,8.7-.9,3.3.4,6.2,1.6,12,4.8,7.5,4.2,10.3,5.2,14.4,5.2,2.4,0,4.3-.4,6.4-1.3,1.8-.8,2.8-1.5,5.6-3.7,2.7-2.1,3.9-2.7,6-2.8,4.3-.2,8.8,1.9,12.2,5.8,2.1,2.4,3.4,4.6,7.1,11.9,3.8,7.5,5.2,9.8,7.8,12.5,2.2,2.3,4,3.7,6.4,4.8,2.3,1.1,3.7,1.5,6,1.8,7.2.7,14.3-3.2,19.3-10.7,3.8-5.7,8.3-16.4,10.5-24.9,3.1-12.1,2.5-20.5-1.9-24.9-2.2-2.2-5-3.2-8.8-3.2-1.1,0-2.5.1-3.1.3ZM506.9,436c-1.6.4-4.1,1.5-7.3,3.4-1.3.8-3.3,1.9-4.3,2.4-3.8,1.9-9.7,3.4-16.2,4.2-11.9,1.4-12.8,1.6-21.7,4.9-5.1,1.9-7.5,2.4-10.6,2.3-2.9-.1-4.6-.6-8.3-2.4-6.8-3.2-10.8-4.3-15.5-4.6-3.4-.2-5.3,0-10.9,1.5-5.5,1.4-8,1.8-11,1.8-3.8,0-5.9-.6-11.7-3.2-9.2-4.2-14.7-4.9-20-2.4-1.9.9-2.9,1.7-4.4,3.9-4.5,6.3-5.5,13.3-2.3,15.6,1.1.7,2.1.9,3.2.4,1.2-.4,2.2-1.3,5.3-4.2,2.7-2.5,3.8-3.1,6.1-3.3,1.8-.2,3.2.3,6.9,2.2,1.7.9,3.7,1.8,4.5,2.1,1.9.6,4.8.6,7.8,0,1.3-.3,2.9-.7,3.6-.8,2-.5,5.8-.6,7.6-.3,3.1.6,6.1,1.8,11.5,4.8,8.2,4.6,12.1,5.8,16.6,4.8,2.9-.6,5-1.7,8.5-4.5,2.6-2,3.7-2.7,5.3-3,1.5-.3,2.5-.3,4.4,0,3.4.7,6.3,2.3,8.9,5,2.5,2.6,4.1,5.1,7.9,12.7,1.9,3.8,4,7.8,4.7,8.8,1.6,2.4,4.9,5.8,7.1,7.2,5.1,3.4,11.1,3.8,16.5,1.3,2.5-1.1,4.1-2.3,6.3-4.6,2.4-2.4,4.3-5.2,6.7-9.9,4-7.9,6.9-16.4,8.5-24.7.4-2.1.5-3.2.5-6.9,0-3.9,0-4.6-.5-6.1-1.2-4.6-4-7.3-8.4-8.2-1.9-.4-3.6-.4-5.3,0ZM7.7,445.7c-2,.2-3.6.5-5.9,1-1.7.4-1.8.5-1.8.9s0,.5.4.4c.2,0,1.5-.3,2.8-.6,6.8-1.4,13-1.2,18.9.5,4.8,1.4,11.9,5.1,20.8,10.7,5.8,3.7,14.6,8.9,20.4,12,24.2,13,36.5,16.2,55.3,14,9.2-1.1,17.7-2.7,42.3-8.3,23.3-5.3,35.1-7.9,37.8-8.3,13.2-2.1,30.4,1,40.1,7.4,2.1,1.4,5.6,4.9,6.6,6.6.4.7,1,2.1,1.3,3,.7,2.2.8,5.6,0,8.1-1.9,7-8.6,13.2-22.7,21.1-4.5,2.5-4.9,2.7-14.6,7.6-16.8,8.5-20.5,10.6-24.7,14.1-4,3.4-7.2,8-8.7,12.8-2.5,7.9-1.9,17,2,30.7.5,1.7,1,3.4,1.1,3.8.2.6.3.8.7.8s.5,0,.5,0-.6-2.1-1.2-4.5c-2.6-9.3-3.4-13.9-3.4-20.2,0-3.7,0-4.6.5-6.7,1.2-5.8,3.6-10.3,7.7-14.3,4-4,7.6-6.1,25.1-15,13.6-6.8,18.2-9.4,23.7-13,8.7-5.7,12.9-10.2,14.8-15.7.7-1.9.7-2.1.7-5.3,0-3.1,0-3.4-.6-4.8-.3-.8-1-2.2-1.4-3-1.1-1.9-4.3-5.1-6.7-6.7-5.4-3.6-12.9-6.2-21.4-7.5-6.3-1-15.3-1-20.4,0-1.9.3-12.4,2.7-21,4.6-3.4.8-7.5,1.7-9.3,2.1-1.7.4-5.8,1.3-9.2,2.1-31.2,7.1-42.9,8.9-53.6,8.2-10-.6-18.3-3.2-31.9-9.9-10.4-5.1-14.7-7.5-30.3-17.1-11.8-7.2-16.8-9.6-23.2-11-2.9-.6-7.8-.8-11.3-.4ZM595.9,447.4c-4.4,1.2-9.2,3-11.1,4-4.5,2.6-8.6,6.6-12.5,12-4.3,6.1-7.2,11.6-13.5,25.9-3.2,7.3-4.2,9.4-6.1,13.2-2.1,4.1-2.9,5.5-5.2,9-11.5,17.2-24.2,28-41.1,34.8-7.2,2.9-14.8,5.1-29.7,8.6-13.7,3.2-21.1,5.2-28.9,7.8-12.6,4.2-22.3,8.8-28,13.3-2,1.6-4.9,4.5-6,6.2l-1,1.6h.6c.3.1.6,0,.7-.1,0-.1.7-1,1.4-1.9,4.7-6.1,15.6-12.2,32.2-17.8,6.6-2.3,16.2-4.9,28.6-7.8,15.8-3.7,22.6-5.6,30-8.6,17.2-6.8,30.3-17.8,42-35.3,3.3-5,5.7-9.6,9.8-18.8,5-11.4,5.8-13.1,7.9-17.3,6.1-12.2,11.8-19.4,18.9-23.7,1.8-1.1,5.5-2.5,10-3.9,1.7-.5,1.8-.6,1.8-1.1s0-.5,0-.5c0,0-.4.1-.8.2ZM496.3,454.5c-.8.1-2.5.5-3.7.9-4.8,1.3-10.6,2.6-18.8,4.1-4.7.9-5,1-5.8,1.9-.9,1.1-.9,2,.2,3,.4.4,1.1.8,1.4.9.7.2,6.6,3.4,9.8,5.3,3,1.8,5,3.2,7.5,5.2,2,1.6,4,2.7,5,2.7,1.1,0,2.4-.8,3.3-2.1,1.2-1.7,3.2-5.9,4-8.3.7-2.1,2.1-8,2.3-10.1.1-.8,0-1.3-.3-2-.7-1.5-2.2-2-4.7-1.5ZM496.2,455.3c-.6.1-2.6.7-4.4,1.1-4.1,1.1-9.3,2.2-15.7,3.5-6.6,1.3-6.8,1.3-7.4,1.9-1.1,1-.6,1.9,1.7,3,1.4.6,6.1,3.2,8.5,4.6,2.8,1.7,5.7,3.7,8.1,5.5,4.9,3.9,5.9,3.7,8.8-1.7,1.9-3.6,3.3-7.8,4.3-13.6.5-2.7.4-3.6-.5-4.2-.7-.4-2.1-.5-3.5-.2ZM10,458.9c-3,.3-6.6,1.1-9,1.9-.7.2-1,.4-1,.7s0,.4.5.2c2.5-1,7.4-1.9,10.5-2,3.2-.1,4.8,0,7.8,1,3.9,1.2,7.3,3.1,22.4,12.3,9.3,5.7,14.4,8.6,22.8,12.8,11.6,5.8,19.1,8.8,27.4,10.7,12.4,2.9,24.6,2.5,43.9-1.2,7-1.4,12.6-2.6,29.8-6.4,2.6-.6,5.3-1.3,13.6-3.7,6.6-1.9,12-3.2,15.9-3.8,3.4-.5,9.9-.5,12.2,0,3.6.8,6.8,2.2,8.9,3.9,5.1,4.1,3.8,10.8-3.4,18-3.9,3.9-6.9,5.9-14.3,9.7-14.3,7.2-19.5,10.5-24.6,15.7-6.5,6.5-10.2,13.9-11.6,23.1-.5,3.4-.6,10.6,0,14.5.5,3.8,1.4,8.9,2.5,13.2,1.1,4.4,1.2,4.7,1.6,4.7s.3,0,.3-.1-.5-1.9-1-4.1c-1.3-4.9-1.9-8.3-2.5-12.4-.6-4.3-.7-12-.1-15.6,1.4-9.1,5.1-16.4,11.5-22.8,4.9-4.9,10.4-8.4,23.7-15.1,5.7-2.9,7.3-3.8,9.6-5.4,6.2-4.5,10.7-10,11.9-14.6.4-1.4.4-3.7,0-5-1.3-4.4-7.6-7.9-15.5-8.6-5.6-.5-13,.6-23.4,3.6-1.8.5-5.3,1.5-7.9,2.3-4.6,1.3-7.2,1.9-19.3,4.6-3.3.7-6.6,1.5-7.4,1.6-2.2.5-7.3,1.5-12.4,2.5-25.2,4.8-39.6,3.6-59.2-4.9-1.4-.6-4.9-2.3-7.9-3.7-9.8-4.8-16.5-8.6-30.4-17.2-10.7-6.6-15.2-8.8-19.6-9.8-1.5-.3-5.2-.5-6.6-.4ZM594.3,461.9c-2.8,1-4.2,1.9-6.8,4.3-3.5,3.3-6.8,8.3-10.5,15.8-1.9,3.9-3.6,7.4-8,17.4-4.3,9.7-7.3,15.3-11.9,21.9-8.9,12.9-19,22.7-30.3,29.8-5.7,3.6-14,7.4-21.1,9.9-7.6,2.6-19.3,5.7-33.6,8.7-6.6,1.4-11.3,2.6-14.7,3.7-7.3,2.3-13,5.5-16.8,9.2-1.1,1.1-1.2,1.2-.8,1.3.3,0,.9-.3,1.9-1.2,2.7-2.5,7.4-5.3,12.2-7.1,4.7-1.8,9.4-3.1,18.4-5,15.9-3.4,27.5-6.5,36-9.6,21.2-7.7,37.2-20.6,51-41.4,3.7-5.5,7.5-12.7,11.3-21.6,8.5-19.6,12.9-27.3,18.5-32.2,1.9-1.7,3.1-2.3,5.5-3.2,1.7-.6,2.2-.8,2.2-1.1s0-.4,0-.4c0,0-1.1.4-2.4.8ZM12.7,476.9c-3.8.5-7.7,2.1-11.3,4.5-.8.5-1.4,1.1-1.4,1.2,0,.3-.1.4,2.3-1.3,5.5-3.6,12.1-5,18.1-3.8,4,.8,6.4,2,13.2,6.2,9.2,5.7,15.8,9.4,24.4,13.7,13.8,7,23.4,10.6,34.7,13,3.9.9,7.4,1.3,16.2,2.3,12.6,1.4,19.4,1.7,24.7,1,5.9-.7,7.9-1.6,12.2-5.5,3.5-3.1,4.9-4,7.3-4.7,2-.5,4.4-.3,7.7.6,4.4,1.3,7,1.2,9.8-.2,1.7-.8,2.8-1.7,6.8-5.5,3.4-3.2,5.7-4.6,10.1-5.9,2-.6,5-.8,6.3-.5,2.1.6,3.1,1.9,3.1,4,0,4.5-6.6,11.1-12.7,12.8-1.1.3-2.3.4-7.9.4-6.3,0-6.7,0-8,.5-2.2.7-3.8,2-5.4,4.5-.3.5-1.7,3.1-3,5.8-1.4,2.7-3,5.6-3.6,6.5-2.9,3.9-5.3,9.1-6.5,14-2.2,8.5-2.1,18.2,0,31.9.5,3.3,2.2,11.2,2.5,11.4.4.4.4-.1,0-2.1-1.4-5.8-2.7-13.2-3.2-19.9-.3-3.2-.3-11.3,0-14.1.8-7.5,3.2-14.3,7.4-20.5,1.1-1.6,2.7-4.5,4.1-7.3,2.6-5.2,3.7-7,5.2-8.3,2.1-1.9,4.1-2.2,11.1-2.1,6.5.2,8.7-.3,11.9-2.3,7-4.4,10.6-11,7.9-14.3-1.8-2.1-6.3-2.2-11.3-.2-3.6,1.4-4.9,2.3-8.6,5.8-4.1,3.9-6.4,5.4-9,5.9-1.6.3-3.1.1-6.5-.8-3.9-1-5.3-1.2-7.4-.8-2.4.4-4.4,1.5-7.2,4-3,2.7-4.6,3.9-5.8,4.5-4.4,2.2-12.8,2.7-25.4,1.4-5.5-.5-15.8-1.7-18-2.1-17.9-2.9-38.3-11.9-66.4-29.3-3.6-2.3-6.3-3.4-9.8-4.3-1.9-.5-6.4-.7-8.4-.4ZM595,483.9c-3.7,3.1-7.4,8-10.1,13.2-.7,1.3-2.2,4.6-3.5,7.4-4.4,9.9-7.6,16-11.8,22.2-6.2,9.2-12.9,17.2-19.9,23.6-3.1,2.8-3.7,3.3-11.5,8.2-5.6,3.6-8.8,5.9-11.2,8.2-2.5,2.4-3.6,4-3.6,5.6,0,2.3,1.3,3.5,4.8,4.4,2.9.8,5.4.9,13,.7,11.2-.3,18.7-.2,22.6.2,8.4.9,16.9,2.8,23.9,5.5,1,.4,2.1.7,2.4.6.4,0,0-.3-1.5-.9-12.4-4.8-26.9-6.9-41.1-6.1-5.9.4-12.1.4-15.1,0-7-.7-9.7-2.9-8-6.4,1.5-3,5.6-6.3,15.9-12.8,6.4-4.1,7.4-4.8,11.5-8.8,8.1-7.8,16.4-18.5,22-28.1,2-3.5,5.4-10.4,8.2-16.6,2.8-6.4,3.7-8.1,5.7-11.2,2.5-3.7,4.6-6.3,7.6-8.9,2-1.8,1.6-2.1-.4-.3ZM12.2,486.5c-3.7,1.1-7.7,3.8-10.8,7.4-.8.9-1.4,1.8-1.4,2,0,.3.2.2.7-.4,1.3-1.6,4-4.3,5.5-5.4,2-1.5,4.5-2.7,6.6-3.3,3.1-.8,6.8-.3,10,1.3.7.3,4,2.3,7.3,4.3,11.4,6.9,21.9,12.6,31.3,17,11,5.1,23.4,8.7,35.8,10.5,6,.9,8.7,1.1,15.7,1.3,12.9.4,17,.7,21.2,1.9,4,1.1,6.3,3,7.4,6.2.7,2,.5,6.3-.4,12.1-2.3,14.2-2.4,21.8-.5,33,.7,4.3,1.8,9.4,2.1,9.6.4.4.3-.4-.5-3.9-.8-3.8-1.6-8.4-2.1-12.6-.2-1.2-.3-4.3-.3-7.6,0-6.6.2-8.9,2.3-21.9.4-2.7.4-6.5,0-8.1-.9-3.3-3-5.6-6.6-6.8-3.9-1.4-7.9-1.8-19.4-2.2-9.2-.3-12.5-.5-17.9-1.3-10.4-1.4-20.6-4-29.8-7.6-10.3-4-25.2-11.9-40.9-21.5-4-2.4-5.5-3.2-7.7-3.9-2.3-.7-5.5-.7-7.7,0ZM595.3,497.8c-1.7,2.5-2.6,4.4-5.4,10.6-5,11.3-7.9,16.6-13.1,24.3-3.7,5.5-9,12.6-14.2,18.9-4.8,5.9-5,6.2-5.8,7.7-1.3,2.6-.9,4.8,1.1,6.6,1.8,1.6,4.5,2.5,10.2,3.2,9.2,1.2,18,3.5,25.5,6.7,2.9,1.2,3.2,1.3,3.2.8s0-.3-.1-.2c0,0-.5,0-.9-.2-9.3-4-17.9-6.3-28-7.6-4-.5-4.6-.6-6.9-1.5-1.5-.5-2-.9-2.9-1.7-.6-.6-1.2-1.4-1.4-1.9-.4-1.2-.2-2.8.6-4.2.6-1.2,1.1-1.9,5-6.7,8.6-10.5,15.6-20.3,20-27.9,2.1-3.6,5.4-10.4,8.1-16.5,2.3-5.3,3.6-7.8,5.1-10.1.6-1,1.1-1.9,1.1-2.1,0-.2-.7.6-1.4,1.8ZM15.6,496.5c-4.1.8-7.8,3.7-10.5,8.2-1.3,2.2-5.2,10.9-5.1,11.5,0,.3,1-1.6,2.3-4.7,3.2-7.1,4.1-8.7,7-11.3,2.7-2.5,5.1-3.4,8.4-3.2,2.9.1,3.6.5,8.7,3.8,9.1,5.9,20.1,12,31.3,17.1,15.3,7,32.8,11.3,50.2,12.3,9.6.5,13.4,1.4,17,3.7,3.3,2.1,5.1,5.1,5.9,9.8.4,2.4.4,9.1,0,14.5-.5,5.6-.5,10.6,0,13.4.7,3.9,2.5,11.9,2.8,12.2.4.4.3-.6-.3-2.8-2.5-9.8-2.7-13.3-1.9-23.8,1-12.6-.1-18.3-4.4-22.3-3.3-3-8.4-4.6-16.5-5-4.6-.2-8.1-.5-12.7-1.2-13.7-1.8-25.6-5.1-37.9-10.4-2.9-1.3-14.5-7-17.8-8.8-6.2-3.4-11.9-6.8-16.7-10-2.3-1.5-3.2-2-4.8-2.6-1.1-.4-4-.7-5-.5ZM16.1,509.7c-2.4.9-5.2,3.3-7.2,6.2-1.6,2.4-3.1,5.6-5.2,11-1,2.7-2.3,5.8-2.8,7-.5,1.2-.9,2.3-.9,2.5,0,.5,2.1-3.9,3.9-8.7,3.8-10,6.2-13.8,10-16.4,1.8-1.2,3.3-1.6,5.5-1.5,3.5.2,4,.4,20.9,9.7,16,8.8,27.8,13.4,43.3,16.8,6.4,1.4,15.7,2.7,22.1,3.1,6,.4,8.1.6,9.8,1,4.7,1.3,7.1,4.2,7.1,8.7,0,.7-.2,2.9-.5,4.8-1,7.1-1.2,14.5-.4,19.5.4,2.4,2.1,10.3,2.3,10.5.4.4.3-.4,0-2.1-1.8-7.7-2.2-10.4-2.2-16.3,0-4.9.3-8.2,1-12.7.5-3.1.3-6.1-.4-7.7-1-2.2-3.4-4.2-6.1-5-1.8-.5-3.5-.7-8.3-1-18.9-1.2-35.7-5.2-51.8-12.3-3-1.3-11-5.3-13.3-6.6-.9-.5-3.1-1.7-4.9-2.7-13.9-7.6-14.8-8-18.4-8.1-1.7,0-2.4,0-3.3.3ZM596.4,516.6c-.2.4-1.4,2.9-2.7,5.6-3.7,7.4-6.5,12.2-9.2,15.4-6.7,8.1-8.1,10.1-9.5,13.1-1.5,3.3-1.9,6.1-1,8,.9,1.9,2.4,2.7,7.1,3.6,4.6.9,9,2.2,14.1,4.2,1.6.6,1.9.7,1.9.2s0-.3-.2-.2c-.1,0-1-.2-2-.6-2.2-.9-8.3-2.9-10.1-3.4-.7-.2-2.3-.5-3.5-.7-5.2-.9-6.9-2.2-7.2-5-.4-3.6,2-8.1,7.8-15.2,4.6-5.5,5.5-6.8,8.1-11.3,3.2-5.6,7-13.3,6.9-14.1,0-.4-.1-.4-.4.3ZM357.2,517.2c-25.4,1.2-54.2,8.2-71.7,17.5-20,10.6-32.3,25.1-39.1,46.2-.5,1.6-.9,3-.9,3s.2,0,.5,0c.5,0,.6-.3,1.6-3.2,6.9-21,19.7-35.7,39.9-45.8,16.1-8.1,39.8-14.2,63-16.2,8.6-.7,22.7-.8,31-.1,10.9.9,22.1,2.7,30.5,4.9,11.2,2.9,18.5,6.9,21.9,11.7,1.8,2.6,2.4,6.2,1.6,9.5-1.3,5-4.1,9.1-11.4,16.7-8.5,8.8-14.4,15.2-20.4,22.2-.3.3-.3.4.4.4.6,0,.9-.2,1.9-1.4,2.5-3.1,12.2-13.6,18.1-19.7,5.6-5.7,7-7.5,9-10.5,1.5-2.3,2.3-3.9,3.1-6.3.6-1.7.7-2.2.7-4.4,0-2.2,0-2.7-.5-4-3.2-9-16.9-15.1-41.8-18.7-12-1.7-25.1-2.3-37.1-1.8ZM18.8,520.1c-2.3.8-3.8,3-5.6,8.1-1.3,3.6-1.3,3.7-3.3,7.4-4.7,8.6-5,11.3-2,14.1,1.1,1,3.3,2.2,8.6,4.5,3.8,1.7,9.9,5.1,15.6,8.9,8.5,5.6,15.5,9.8,24.5,14.8,7.3,4.1,11,6,11.5,6,.3,0-.2-.4-1.5-1.1-13-7-23.9-13.4-33.2-19.5-8.5-5.6-13.4-8.3-19.8-11-3.5-1.5-5.8-3.1-6.7-4.7-.5-1-.5-3,.1-4.8.5-1.6,1.8-4.2,4.1-8.4,1-1.8,1.9-3.8,2.5-5.6,2.2-6.4,4-8.6,7.3-8.6,2.1,0,4.5,1,9.1,3.8,4.9,3,14.8,8.3,20.6,10.9,10.8,4.9,25.2,9.5,35.1,11.1,1.4.2,4.4.6,6.7.8,5.2.5,7.3.9,10,1.7,6.1,1.9,9,5.1,9.6,10.9,0,.7.2,3.6.2,6.5,0,4.2.2,6,.6,8.6.7,4.5,1.8,9.3,2.1,9.3s.1-.5-.2-2c-1.4-6.1-2-10.3-2-15.7,0-8.8-.8-11.7-3.7-14.6-3-2.9-7.5-4.3-16.8-5.2-4.8-.5-6.9-.8-11.3-1.8-9.7-2.2-20.1-5.6-29.2-9.7-6.1-2.7-16.2-8.1-22.6-11.9-3.2-2-4.6-2.6-6.4-3-1.6-.4-2.5-.4-3.8,0ZM359.9,525.1c-14.2,1.3-28.4,3.9-43.7,8.1-14.1,3.8-24.8,8.3-33.5,14-8.4,5.5-15.3,12.6-20.2,20.8-2.4,4.1-4.9,9.3-6.4,13.9-.6,1.9-.7,2-.3,2s.5-.3.7-1.1c2.5-7.6,7.4-16.6,12.2-22.3,9.4-11.1,22.8-19.1,41.8-24.9,12.7-3.9,28.1-7.2,41-8.8,7.9-1,10.1-1.1,16.8-1.1,6.9,0,11,.3,17.3,1,11.7,1.5,20.5,4,25.8,7.5,4.6,3,7.1,6.9,7.5,11.2.2,3.1-.4,5.7-2.4,9.8-2.9,5.9-7.4,11.4-18.8,22.9-3.1,3.1-5.6,5.7-5.6,5.8s.2.1.4.1c.4,0,10.3-9.9,14.3-14.2,5.8-6.3,9.8-12.2,11.6-16.8,1.3-3.4,1.7-7.2,1-9.9-1.3-4.9-5.5-9-11.9-11.8-6.2-2.7-15.5-4.7-26.5-5.8-4-.4-17.8-.6-20.9-.3ZM23.5,533.3c-1.7.5-2.9,1.4-3.8,3.1-1.1,2-1.4,3.6-.9,5.3.8,3.3,3.5,5.6,11.1,9.6,2.1,1.1,4.7,2.6,5.9,3.4,12.6,8.4,27.9,17.2,45.6,26.1,5,2.5,6.3,3.1,6.9,3.1.6,0-.2-.5-6.2-3.5-17.8-8.9-30.1-15.9-44.6-25.3-2.1-1.3-5.4-3.3-7.4-4.4-4.5-2.4-6.8-3.9-8.4-5.5-2.1-2.1-2.8-4.2-2.1-6.7,1.3-4.3,4.4-5.6,9.7-3.9,2.5.8,4.9,2.1,9.6,4.9,2.1,1.3,4.9,2.8,6.1,3.4,10.3,4.8,22.5,9,33.9,11.5,4.9,1.1,6.5,1.3,14.7,2.1,4.2.4,6.1,1.1,7.7,2.8,1.8,1.9,2.3,4.2,2.8,11.4.2,2.8.4,6,.4,7,.1,1.7-.2,5-.5,5.8,0,.2,0,.3.3.3.6,0,.7-.5.8-3.3.1-2.2,0-6.2-.6-13-.5-6.2-1.8-8.9-5.1-10.5-1.6-.8-3.4-1.1-7.8-1.5-5.5-.5-8-.9-12.6-1.9-9.5-2.1-18.7-5-28-8.9-5.1-2.1-7.7-3.4-11.9-5.9-4.8-2.9-7.2-4.1-9.9-4.9-2.6-.9-4.4-1-5.9-.6ZM369.4,534c-15.2.7-29.3,2.8-45.5,6.9-12.4,3.2-19.2,5.5-26.4,9.1-4.6,2.3-7.3,3.9-10.8,6.6-7.5,5.6-13.3,12.4-17.8,20.7-1.1,2-3,6.1-3,6.5,0,.6.5-.2,1.5-2.5,5.5-12.1,14.3-21.8,26-28.6,8.3-4.8,17.1-8,32.3-11.7,18-4.4,33.6-6.5,49-6.5,16.4,0,26.4,2.5,30.7,7.7,3.3,4,2.9,9.5-1,15.3-1.9,2.7-3.5,4.5-11.9,12.9-9.2,9.2-13.5,13.8-12.3,13.6.2,0,.7-.6,1.3-1.3,1.9-2.5,6.3-7.1,12.9-13.5,8.6-8.3,11.1-11.6,12.8-16,3-7.7-1-13.9-10.8-16.8-6.5-1.9-16.7-2.8-27.1-2.4ZM596.6,536c0,.1-.7,1.4-1.6,2.9-2.6,4.4-3.4,6.7-3.4,9.5,0,3.7,1.7,6.8,4.3,8.2,1,.5,1.1.5,1.1.2,0-.1-.4-.4-.8-.6-2.7-1.2-4.3-4.7-4.1-8.5.2-2.6,1-4.7,3.6-9.1.8-1.3,1.1-2.1,1-2.4,0-.3-.1-.4-.1-.3ZM227.9,540c-3.3.5-8,2.5-12.2,5.2-4.8,3.2-8.3,6.4-12.6,11.7-7,8.6-9.3,15.3-8.2,23.1.5,3.1.7,3.9,1.1,3.9s.3-.1,0-1.8c-.5-2.5-.7-6.8-.4-9,.9-6.1,5-13,12.4-20.7,4.4-4.6,11.3-9.2,16.7-10.9,1.6-.5,2.6-.7,4.3-.8,3.4-.2,5.2.6,7.3,2.8,1.9,2.1,3.1,5.5,3.6,10,.3,2.7.2,9.7-.2,13.3-.4,4.1-1.8,11.7-3,16.8,0,.2,0,.4.3.4s.5-.4.8-1.9c2.3-9.7,3.5-20.7,3-27.1-.5-6.2-1.8-9.9-4.4-12.5-2-1.9-5.1-2.8-8.4-2.4ZM371.8,543.1c-17.3.7-32.7,3.2-50.9,8.2-8.6,2.4-13.3,4.1-18.9,6.9-6.4,3.2-11.4,6.8-16.1,11.6-3.8,3.9-6.8,8.1-9.1,12.7-.7,1.4-.7,1.5-.5,1.5s.7-.9,1.3-2c2.5-4.7,5.4-8.5,9.2-12.3,8.3-8.3,18-13.4,34-17.8,19.9-5.5,38.1-8.2,54.3-8.2s13.3.7,16.5,2.3c1.7.8,2.3,1.4,3,2.4.5.7.6,1.1.6,2.4,0,1.4,0,1.7-.8,3.1-1.3,2.6-2.6,4.2-10.1,11.7-7.7,7.7-9.7,10-12.8,14.5-2.4,3.5-2.7,3.9-2.4,3.9.1,0,.9-.9,1.6-2,3.8-5.7,6-8.2,14.5-16.7,8.6-8.6,10.3-10.8,10.5-14.3,0-1.3,0-1.7-.4-2.5-1.2-2.6-5.2-4.3-11.5-5-2.9-.3-9-.5-11.9-.4ZM222.7,551.5c-2.2.6-4.9,2.8-7.1,6-1.7,2.3-3.4,5.8-4.3,8.6-.7,2-.8,2.5-.8,4.3,0,2.5.4,3.6,2.2,6.4,1.8,2.8,2.4,4,3,6.7.2.9.6.7.4-.3-.3-1.9-1-3.5-3.5-7.5-1.4-2.2-1.6-3.3-1.5-5.7,0-1.6.2-2.4.8-4,1.4-4,4-8.4,6.5-11,2.5-2.5,4.4-3.3,7.2-3,3.9.5,5.4,1.8,5.2,4.6-.1,1.9-1.1,4.2-3.6,8.5-3.2,5.7-3.3,6.2-.8,9.9,1.3,1.9,1.3,2.1,1.3,3.2s-.6,3.2-1.8,4.6c-1.1,1.3-.8,1.7.3.5,1.2-1.4,1.9-3.2,2-4.8,0-1.6-.3-2.4-1.5-3.9-1.1-1.4-1.5-2.3-1.5-3.5s.2-2,2.4-5.8c2.6-4.6,3.5-6.5,3.6-8.6,0-1.3,0-1.9-.3-2.5-.5-1-1.7-1.9-3.1-2.3-1.3-.4-4.1-.6-5-.3ZM360,553.2c-13.2,1.3-29,4.5-42.6,8.8-11,3.4-19,8-25.1,14.5-2.6,2.7-6.1,7.5-5.5,7.5s.8-.8,1.5-1.8c5.9-8.7,15-15,27.6-19.2,4.7-1.6,12.3-3.6,19.1-5.2,14.5-3.3,30.7-5.2,35.5-4.2,2.8.6,4.2,2,4,4-.2,2.3-1.8,5.1-6.9,11.9-5,6.7-10,14.4-9.5,14.5.1,0,.3,0,.3,0,0,0,.6-1.1,1.4-2.3,2-3.3,5.2-8,8.4-12.2,3.7-4.9,4.8-6.6,5.8-8.7,1.4-2.9,1.3-5.2-.3-6.4-2.1-1.6-6.1-1.9-13.7-1.2ZM.2,557c0,.3.6.6,4.7,2.3,4.2,1.8,7.6,3.3,11.1,5.1,4.2,2.2,5.8,3.1,11.2,6.7,9.3,6.1,20.6,12.9,21.4,12.8.3,0,.2-.2-.7-.7-3.8-2.1-14.3-8.5-20.4-12.5-2.1-1.4-5-3.2-6.4-4-3.4-2-10.2-5.4-14.9-7.4-2.1-.9-4.3-1.8-4.9-2.1-.8-.4-1.1-.4-1.1-.2ZM71.5,561.7c-2.4.4-3,1.9-1.6,4,1,1.6,3.2,2.9,8,4.9,1.4.6,3.6,1.6,4.8,2.2,4.1,2,7.1,3,9.1,3,2.6,0,4.3-1.6,4.9-4.4.7-3.3-1.2-5.6-5.7-7-.8-.2-3.1-.7-5.1-1.1-2-.3-4.7-.8-5.9-1-2.4-.4-6.2-.9-7.1-.8-.3,0-.9,0-1.4.2ZM70.6,562.8c-.7.4-.7,1-.2,2,.8,1.5,2.6,2.8,6.8,4.5,1.3.5,4,1.8,6.1,2.8,5.3,2.5,7.9,3.3,9.9,2.7,2-.5,3.4-3.4,2.8-5.6-.3-1.1-1.5-2.4-2.7-3-1.5-.7-4.2-1.5-7.3-1.9-1.5-.2-4-.7-5.5-1-3.3-.6-9-.9-9.9-.5ZM345.6,565.1c-4.9.6-10,1.6-16.8,3.2-11.9,3-18.8,5.8-24.9,10-2,1.4-6.2,5.4-5.8,5.5.1,0,1.1-.7,2.1-1.7,6.7-6.4,15.3-10.2,32-14.2,7-1.6,12-2.4,15.4-2.5,2.2,0,2.6,0,3.4.4.5.2,1,.7,1.2,1.1.4.8.4,2.6,0,4.4-.2,1-2.8,9.3-3.7,12.2,0,.1,0,.3.2.3s.9-2.2,2-5.5c2.2-6.9,2.3-7.7,2.3-9.6,0-2.8-1.1-3.7-4.5-3.8-1.1,0-2.4,0-2.8,0ZM.2,567.1c0,.1,1.2.7,2.6,1.3,6.6,2.9,13.1,6.4,17.5,9.3,5.4,3.6,9.7,6.3,10.1,6.2.3,0-.5-.6-2.2-1.7-1.5-.9-4.4-2.8-6.5-4.2-4.7-3.1-7.1-4.5-12.6-7.1-3.8-1.9-8.4-4-8.8-4s0,.1,0,.2ZM.2,576.9c0,.1,1.4.9,3.2,1.8,1.7.9,4.6,2.4,6.3,3.5,1.7,1,3.3,1.8,3.5,1.8.4,0-5.9-3.9-9.7-5.7-3.2-1.6-3.3-1.6-3.3-1.3ZM328.2,578c-4.4,1-10,3-13.8,4.9-1.8.9-1.9,1-1.3,1,.4,0,1.4-.3,2.9-1,5.3-2.4,12.3-4.5,15.9-4.7,4.3-.3,6.6,1.1,7.1,4.3.2,1,.3,1.5.5,1.5.4,0,.2-2.4-.3-3.5-.6-1.2-2-2.3-3.2-2.7-1.6-.5-5.2-.4-7.7.2Z"/>
</svg>